<?xml version="1.0" encoding="UTF-8" standalone="no"?>
<!-- Created with Inkscape (http://www.inkscape.org/) -->

<svg
   width="91"
   height="91"
   version="1.1"
   viewBox="0 0 24.077 24.077"
   id="svg1089"
   sodipodi:docname="USR_ResourceType_IncidentSupportTeam.svg"
   xml:space="preserve"
   inkscape:version="1.1.2 (b8e25be833, 2022-02-05)"
   inkscape:export-filename="C:\Users\15402\OneDrive\Desktop\To Upload\USR_ResourceType_IncidentSupportTeam.png"
   inkscape:export-xdpi="270.06595"
   inkscape:export-ydpi="270.06595"
   xmlns:inkscape="http://www.inkscape.org/namespaces/inkscape"
   xmlns:sodipodi="http://sodipodi.sourceforge.net/DTD/sodipodi-0.dtd"
   xmlns="http://www.w3.org/2000/svg"
   xmlns:svg="http://www.w3.org/2000/svg"><defs
     id="defs1093"><pattern
       id="EMFhbasepattern"
       patternUnits="userSpaceOnUse"
       width="6"
       height="6"
       x="0"
       y="0" /><pattern
       id="EMFhbasepattern-6"
       patternUnits="userSpaceOnUse"
       width="6"
       height="6"
       x="0"
       y="0" /><pattern
       id="EMFhbasepattern-9"
       patternUnits="userSpaceOnUse"
       width="6"
       height="6"
       x="0"
       y="0" /></defs><sodipodi:namedview
     id="namedview1091"
     pagecolor="#ffffff"
     bordercolor="#000000"
     borderopacity="0.25"
     inkscape:showpageshadow="2"
     inkscape:pageopacity="0.0"
     inkscape:pagecheckerboard="true"
     inkscape:deskcolor="#d1d1d1"
     showgrid="false"
     showguides="true"
     inkscape:zoom="12.525892"
     inkscape:cx="77.040422"
     inkscape:cy="39.997152"
     inkscape:window-width="1920"
     inkscape:window-height="974"
     inkscape:window-x="-11"
     inkscape:window-y="-11"
     inkscape:window-maximized="1"
     inkscape:current-layer="svg1089"
     inkscape:pageshadow="2"
     inkscape:guide-bbox="true"><sodipodi:guide
       position="12.038699,12.002656"
       orientation="1,0"
       id="guide1649"
       inkscape:locked="false" /><sodipodi:guide
       position="11.83873,12.0385"
       orientation="0,-1"
       id="guide1651"
       inkscape:locked="false" /><sodipodi:guide
       position="12.038699,9.1642742"
       orientation="1,0"
       id="guide1474" /></sodipodi:namedview><path
     style="fill:#ffffff;fill-opacity:1;fill-rule:nonzero;stroke:none;stroke-width:0.198436"
     d="m 8.8635104,20.76972 c -4.8286289,0 -8.73121919,-3.902591 -8.73121919,-8.73122 0,-4.8286292 3.90259029,-8.7312198 8.73121919,-8.7312198 6.3499786,0 6.3499786,0 6.3499786,0 4.828629,0 8.73122,3.9025906 8.73122,8.7312198 0,4.828629 -3.902591,8.73122 -8.73122,8.73122 z"
     id="path1259" /><path
     style="fill:none;stroke:#000000;stroke-width:0.92604px;stroke-linecap:butt;stroke-linejoin:miter;stroke-miterlimit:10;stroke-dasharray:none;stroke-opacity:1"
     d="m 8.8635111,19.446808 c -4.1010277,0 -7.4083077,-3.30728 -7.4083077,-7.408307 0,-4.1010292 3.30728,-7.4083086 7.4083077,-7.4083086 6.3499779,0 6.3499779,0 6.3499779,0 4.101027,0 7.408308,3.3072794 7.408308,7.4083086 0,4.101027 -3.307281,7.408307 -7.408308,7.408307 z"
     id="path1270" /><path
     id="path1671"
     style="font-size:6.61042px;line-height:125%;font-family:'Franklin Gothic Demi';letter-spacing:0px;word-spacing:0px;stroke-width:0.198436"
     d="m 16.705986,13.363048 v 0.871491 h -1.090978 v 3.53438 h -1.045789 v -3.53438 h -1.097433 v -0.871491 z m -3.586024,0.968324 -0.877946,0.293724 q -0.177526,-0.522894 -0.752065,-0.522894 -0.613271,0 -0.613271,0.397012 0,0.15816 0.112971,0.267903 0.116199,0.109743 0.519667,0.190437 0.674598,0.135565 0.98769,0.274358 0.313091,0.138793 0.526122,0.448657 0.216259,0.306635 0.216259,0.687509 0,0.597133 -0.461568,1.032878 -0.458339,0.435746 -1.362108,0.435746 -0.677826,0 -1.155531,-0.306636 -0.4744794,-0.309863 -0.6261837,-0.916679 l 0.9554127,-0.216259 q 0.161387,0.616499 0.897313,0.616499 0.355051,0 0.52935,-0.135565 0.174298,-0.138793 0.174298,-0.32923 0,-0.193665 -0.15816,-0.30018 -0.158159,-0.106516 -0.610043,-0.20012 -0.842442,-0.174299 -1.20072,-0.474479 -0.3582804,-0.303408 -0.3582804,-0.884402 0,-0.587449 0.4260624,-0.990917 0.429289,-0.403468 1.161987,-0.403468 1.297554,0 1.668744,1.036106 z M 9.1256517,13.363048 v 4.405871 H 8.0960013 v -4.405871 z" /><path
     id="path1659"
     style="font-size:6.61042px;line-height:125%;font-family:'Franklin Gothic Demi';letter-spacing:0px;word-spacing:0px;stroke-width:0.198436"
     d="M 18.012295,10.332551 V 12.07876 H 16.972962 V 7.6728901 h 1.936646 q 0.535806,0 0.85858,0.125882 0.326002,0.1226543 0.539033,0.4551119 0.213032,0.3324577 0.213032,0.7391535 0,0.7940251 -0.764976,1.1393935 l 0.813392,1.946329 h -1.139394 l -0.677826,-1.746209 z m 0,-1.8753191 v 1.123255 h 0.632638 q 0.309864,0 0.448657,-0.041961 0.14202,-0.045188 0.251764,-0.1936646 0.109743,-0.151704 0.109743,-0.3453686 0,-0.1839815 -0.109743,-0.32923 -0.109744,-0.1452481 -0.238853,-0.1775256 -0.12911,-0.035505 -0.484162,-0.035505 z m -1.552422,1.3072375 q -0.151704,0.7391526 -0.719787,1.4008406 0.20012,0.206575 0.451884,0.206575 0.09038,0 0.267903,-0.01937 v 0.784342 q -0.238853,0.06133 -0.442201,0.06133 -0.590677,0 -0.952184,-0.422835 -0.603589,0.480934 -1.378247,0.480934 -0.845669,0 -1.262048,-0.422834 -0.413151,-0.422835 -0.413151,-0.965096 0,-0.8779455 1.090977,-1.274958 -0.254992,-0.3227745 -0.332458,-0.5003004 -0.07424,-0.1807537 -0.07424,-0.3841016 0,-0.4647951 0.371191,-0.7488366 0.37119,-0.2872693 0.98769,-0.2872693 0.622954,0 0.965095,0.3130912 0.345369,0.3098635 0.345369,0.7811141 0,0.7262425 -0.82953,1.0683834 l 0.619726,0.6745982 q 0.267905,-0.290496 0.390559,-0.8714896 z M 14.093937,9.2932187 q 0.47125,-0.1742981 0.47125,-0.5099835 0,-0.1807537 -0.12911,-0.3098635 -0.125882,-0.1291098 -0.351824,-0.1291098 -0.180753,0 -0.30018,0.093605 -0.116199,0.093605 -0.116199,0.2420808 0,0.1807537 0.242081,0.4260623 z m -0.464796,0.8844023 q -0.516439,0.177525 -0.516439,0.616498 0,0.25822 0.183982,0.455112 0.187209,0.193665 0.5003,0.193665 0.40024,0 0.732698,-0.264675 z M 11.463125,8.708996 10.585178,9.0027208 Q 10.407652,8.4798262 9.8331126,8.4798262 q -0.6132711,0 -0.6132711,0.3970125 0,0.1581595 0.1129709,0.2679028 0.1161988,0.1097433 0.5196672,0.1904369 0.6745994,0.1355653 0.9876904,0.2743583 0.313091,0.138793 0.526122,0.4486563 0.216259,0.306635 0.216259,0.687509 0,0.597133 -0.461567,1.032878 -0.45834,0.435746 -1.3621094,0.435746 -0.6778262,0 -1.1555324,-0.306636 -0.4744784,-0.309863 -0.6261824,-0.916679 l 0.9554123,-0.216259 q 0.1613872,0.616499 0.8973125,0.616499 0.3550524,0 0.5293514,-0.135565 0.174298,-0.138793 0.174298,-0.32923 0,-0.193665 -0.158159,-0.300181 Q 10.217215,10.51976 9.7653296,10.426155 8.922889,10.251858 8.5646094,9.9516776 8.2063298,9.6482696 8.2063298,9.0672757 q 0,-0.5874495 0.4260622,-0.9909175 0.42929,-0.4034681 1.1619876,-0.4034681 1.2975544,0 1.6687454,1.0361059 z M 7.7515599,7.6728901 v 2.7435819 q 0,0.664915 -0.151704,0.990917 -0.1517039,0.322775 -0.5616275,0.532578 -0.4066957,0.206576 -1.0425614,0.206576 -0.6358656,0 -1.0135116,-0.187209 Q 4.607737,11.772124 4.4205279,11.426756 4.2333187,11.081387 4.2333187,10.416472 V 7.6728901 h 1.1200272 v 2.7435819 q 0,0.355052 0.058099,0.522894 0.061327,0.167843 0.2388531,0.267903 0.1807537,0.09683 0.442201,0.09683 0.290497,0 0.4712506,-0.09683 0.1839815,-0.09683 0.2420809,-0.254992 0.061327,-0.161387 0.061327,-0.535805 V 7.6728901 Z" /></svg>
