<?xml version="1.0" encoding="UTF-8" standalone="no"?>
<!-- Generator: Adobe Illustrator 27.0.1, SVG Export Plug-In . SVG Version: 6.00 Build 0)  -->

<svg
   enable-background="new 0 0 91 91"
   version="1.1"
   viewBox="0 0 91 91"
   xml:space="preserve"
   id="svg846"
   sodipodi:docname="USR_ResourceType_CanineSearchTeam_HR.svg"
   inkscape:version="1.1.2 (b8e25be833, 2022-02-05)"
   xmlns:inkscape="http://www.inkscape.org/namespaces/inkscape"
   xmlns:sodipodi="http://sodipodi.sourceforge.net/DTD/sodipodi-0.dtd"
   xmlns="http://www.w3.org/2000/svg"
   xmlns:svg="http://www.w3.org/2000/svg"><defs
   id="defs850" /><sodipodi:namedview
   id="namedview848"
   pagecolor="#ffffff"
   bordercolor="#666666"
   borderopacity="1.0"
   inkscape:pageshadow="2"
   inkscape:pageopacity="0.0"
   inkscape:pagecheckerboard="true"
   showgrid="false"
   showguides="true"
   inkscape:guide-bbox="true"
   inkscape:zoom="12.527473"
   inkscape:cx="45.579823"
   inkscape:cy="39.114034"
   inkscape:window-width="1920"
   inkscape:window-height="974"
   inkscape:window-x="-11"
   inkscape:window-y="-11"
   inkscape:window-maximized="1"
   inkscape:current-layer="svg846"><sodipodi:guide
     position="45.100877,40.07193"
     orientation="1,0"
     id="guide932" /><sodipodi:guide
     position="-39.592982,44.462281"
     orientation="0,-1"
     id="guide934" /></sodipodi:namedview>
<style
   type="text/css"
   id="style838">
	.st0{display:none;}
	.st1{display:inline;fill:#005F00;}
	.st2{fill:none;stroke:#000000;stroke-width:5;stroke-miterlimit:10;}
	.st3{fill:#FFFFFF;}
	.st4{fill:none;stroke:#000000;stroke-width:3.5;stroke-miterlimit:10;}
	.st5{display:inline;stroke:#000000;stroke-width:0.25;stroke-linecap:round;stroke-linejoin:round;stroke-miterlimit:10;}
	.st6{font-family:'MyriadPro-Bold';}
	.st7{font-size:22px;}
	.st8{font-size:18px;}
	.st9{font-size:13px;}
	.st10{display:inline;fill:#FFFFFF;}
	.st11{font-size:15px;}
	.st12{display:inline;}
	.st13{font-size:28px;}
	.st14{font-family:'FranklinGothic-Demi';}
	.st15{font-size:25px;}
	.st16{font-size:20px;}
	.st17{display:inline;fill:none;stroke:#000000;stroke-width:2;stroke-linecap:round;stroke-linejoin:round;stroke-miterlimit:10;}
	.st18{fill:none;stroke:#000000;stroke-width:3;stroke-linecap:round;stroke-linejoin:round;stroke-miterlimit:10;}
	.st19{fill:none;stroke:#000000;stroke-width:2.5;stroke-miterlimit:10;}
	.st20{display:inline;fill:none;stroke:#000000;stroke-width:3;stroke-linecap:round;stroke-linejoin:round;stroke-miterlimit:10;}
	.st21{fill:none;stroke:#000000;stroke-width:2.5;stroke-linecap:round;stroke-linejoin:round;stroke-miterlimit:10;}
	.st22{fill:none;stroke:#000000;stroke-width:2.5;stroke-linecap:round;stroke-miterlimit:10;}
	.st23{fill:none;stroke:#92278F;stroke-width:0.1;stroke-miterlimit:10;}
	.st24{fill:none;stroke:#000000;stroke-width:4;stroke-miterlimit:10;}
	.st25{display:inline;fill:#181818;stroke:#000000;stroke-width:0.1;stroke-miterlimit:10;}
	.st26{fill:#181818;stroke:#000000;stroke-width:0.1;stroke-miterlimit:10;}
	.st27{display:inline;fill-rule:evenodd;clip-rule:evenodd;}
</style>














<path
   d="m33.5 78.5c-18.25 0-33-14.75-33-33 0-18.25 14.75-33 33-33h24c18.25 0 33 14.75 33 33 0 18.25-14.75 33-33 33z"
   fill="#fff"
   id="path840" /><path
   d="m33.5 73.5c-15.5 0-28-12.5-28-28 0-15.5 12.5-28 28-28h24c15.5 0 28 12.5 28 28 0 15.5-12.5 28-28 28z"
   fill="none"
   stroke="#000"
   stroke-miterlimit="10"
   stroke-width="3.5px"
   id="path842" /><path
   d="m 62.276021,56.79021 q 0,2.4057 -0.6175,4.4769 -0.617505,2.0712 -1.87822,3.4863 -1.363705,1.5309 -3.383421,2.3028 -2.019798,0.75902 -4.708523,0.75902 -0.951994,0 -2.058402,-0.11578 -1.106415,-0.11578 -1.453715,-0.20584 v -3.7694 h 0.514603 q 0.385942,0.1801 1.093498,0.38594 0.720419,0.20584 1.955411,0.20584 1.003408,0 1.96831,-0.24443 0.964854,-0.25729 1.659502,-0.79761 0.759037,-0.57891 1.247911,-1.4408 0.488871,-0.8748 0.656109,-2.0969 -1.119202,0.64324 -2.08412,0.99058 -0.951992,0.33448 -2.380013,0.33448 -1.080599,0 -2.071205,-0.25729 -0.977724,-0.27016 -1.78821,-0.82334 -1.067796,-0.75902 -1.711005,-1.994 -0.630376,-1.2479 -0.630376,-3.139 0,-3.0747 2.13551,-5.0044 2.14841,-1.9426 5.621938,-1.9426 1.788195,0 3.164703,0.47599 1.389408,0.46313 2.392816,1.428 1.170705,1.1064 1.762508,2.8174 0.591783,1.711 0.591783,4.1682 z m -4.927226,-0.72042 q 0,-1.5695 -0.308746,-2.5729 -0.295883,-1.0163 -0.823347,-1.5695 -0.373081,-0.41167 -0.861935,-0.59178 -0.488871,-0.18011 -1.029208,-0.18011 -0.501732,0 -0.964854,0.18011 -0.450268,0.16724 -0.874812,0.59178 -0.398812,0.41167 -0.656093,1.0806 -0.244435,0.66896 -0.244435,1.5952 0,0.90053 0.270152,1.518 0.270167,0.60464 0.746166,0.96485 0.450251,0.34735 1.054896,0.48886 0.617515,0.14151 1.337905,0.14151 0.578912,0 1.260713,-0.14151 0.681826,-0.15438 1.054912,-0.30875 0,-0.14151 0.01283,-0.3988 0.02567,-0.27016 0.02567,-0.79761 z m -11.567046,11.372 h -6.059345 l -5.724816,-7.6674 -1.157805,1.4023 v 6.2651 h -4.94003 v -19.156 h 4.94003 v 8.6708 l 6.844034,-8.6708 h 5.724831 l -7.487339,8.8638 z m 30.719154,-32.035 q 0,2.6759 -1.222111,4.7985 -1.222112,2.1098 -3.087513,3.2419 -1.402308,0.84907 -3.074709,1.1836 -1.672417,0.33448 -3.962324,0.33448 h -6.754041 v -19.156 h 6.946944 q 2.34141,0 4.039515,0.39881 1.698103,0.38594 2.856021,1.1064 1.981211,1.2093 3.113313,3.2676 1.145002,2.0455 1.145002,4.8243 z M 71.393577,35.3682 q 0,-1.8911 -0.694703,-3.229 Q 70.01705,30.7884 68.524777,30.0294 67.765739,29.65632 66.968169,29.52768 66.1834,29.38617 64.588156,29.38617 h -1.247911 v 11.99 h 1.247911 q 1.762508,0 2.5858,-0.15438 0.823348,-0.16724 1.608112,-0.59178 1.350804,-0.77188 1.98121,-2.0584 0.630377,-1.2993 0.630377,-3.2033 z M 48.842457,31.676 q 0,-0.72042 -0.295885,-1.235 -0.295899,-0.51459 -1.016308,-0.81048 -0.501731,-0.20584 -1.170705,-0.24443 -0.66897,-0.05146 -1.556608,-0.05146 h -1.78821 v 5.1587 h 1.518004 q 1.183606,0 1.981211,-0.11578 0.797606,-0.11578 1.337904,-0.52745 0.514603,-0.3988 0.746151,-0.8748 0.244436,-0.48886 0.244436,-1.2993 z m 7.706042,13.289 H 50.51497 L 45.291835,37.9409 H 43.014731 V 44.965 H 38.100405 V 25.809 h 8.284945 q 1.698104,0 2.920312,0.19297 1.222111,0.19297 2.289908,0.8362 1.080613,0.64324 1.711003,1.6724 0.643249,1.0163 0.643249,2.5601 0,2.1227 -0.990586,3.4606 -0.977725,1.3379 -2.804504,2.2256 z m -21.524117,0 h -4.940013 v -8.4392 h -7.29434 V 44.965 H 17.85 V 25.809 h 4.940029 v 7.0113 h 7.29434 V 25.809 h 4.940013 z"
   enable-background="new 0 0 91 91"
   stroke-width="0.706113"
   id="path844" /></svg>
