<?xml version="1.0" encoding="UTF-8" standalone="no"?>
<svg
   id="svg9221"
   viewBox="0 0 90 66"
   version="1.1"
   sodipodi:docname="USR_Resource_SwiftwaterRescueTeam.svg"
   inkscape:version="1.1.2 (b8e25be833, 2022-02-05)"
   xmlns:inkscape="http://www.inkscape.org/namespaces/inkscape"
   xmlns:sodipodi="http://sodipodi.sourceforge.net/DTD/sodipodi-0.dtd"
   xmlns="http://www.w3.org/2000/svg"
   xmlns:svg="http://www.w3.org/2000/svg">
  <sodipodi:namedview
     id="namedview844"
     pagecolor="#ffffff"
     bordercolor="#666666"
     borderopacity="1.0"
     inkscape:pageshadow="2"
     inkscape:pageopacity="0.0"
     inkscape:pagecheckerboard="0"
     showgrid="false"
     inkscape:zoom="19.333333"
     inkscape:cx="45"
     inkscape:cy="33"
     inkscape:window-width="3840"
     inkscape:window-height="1514"
     inkscape:window-x="2869"
     inkscape:window-y="-11"
     inkscape:window-maximized="1"
     inkscape:current-layer="svg9221" />
  <defs
     id="defs837">
    <style
       id="style835">
      .cls-1, .cls-2 {
        fill: #181818;
      }

      .cls-1, .cls-3 {
        stroke-width: 0px;
      }

      .cls-2 {
        stroke-width: .25px;
      }

      .cls-2, .cls-4 {
        stroke: #181818;
        stroke-miterlimit: 37.8;
      }

      .cls-4 {
        fill: none;
        stroke-width: 3.5px;
      }

      .cls-3 {
        fill: #fff;
      }
    </style>
  </defs>
  <path
     id="path10470"
     class="cls-3"
     d="M33,66C14.75,66,0,51.25,0,33S14.75,0,33,0h24c18.25,0,33,14.75,33,33s-14.75,33-33,33h-24Z" />
  <path
     id="path10472"
     class="cls-4"
     d="M33,61c-15.5,0-28-12.5-28-28S17.5,5,33,5h24c15.5,0,28,12.5,28,28s-12.5,28-28,28h-24Z" />
  <path
     id="path10908"
     class="cls-1"
     d="m 72.53,15.91 v 2.64 h -3.3 v 10.7 h -3.17 v -10.7 h -3.32 v -2.64 z m -10.06,2.64 h -6.25 v 2.99 h 4.94 v 2.49 h -4.94 v 5.22 H 52.98 V 15.91 h 9.49 z M 50.3,15.91 V 29.25 H 47.18 V 15.91 Z m -4.58,0 -3.36,13.34 H 39.3 l -2.2,-8.83 -2.11,8.83 H 31.94 L 28.51,15.91 h 3.19 l 1.84,8.14 c 0,0 0.04,0.18 0.11,0.43 0.03,0.09 0.06,0.23 0.11,0.41 l 2.18,-8.98 h 2.88 l 2.25,8.98 c 0.05,-0.17 0.11,-0.45 0.2,-0.84 l 1.9,-8.14 h 2.57 z m -18.41,2.93 -2.66,0.89 c -0.36,-1.06 -1.12,-1.58 -2.28,-1.58 -1.24,0 -1.86,0.4 -1.86,1.2 0,0.32 0.11,0.59 0.34,0.81 0.23,0.22 0.76,0.41 1.57,0.58 1.36,0.27 2.36,0.55 2.99,0.83 0.63,0.28 1.16,0.73 1.59,1.36 0.44,0.62 0.65,1.31 0.65,2.08 0,1.21 -0.47,2.25 -1.4,3.13 -0.93,0.88 -2.3,1.32 -4.12,1.32 -1.37,0 -2.53,-0.31 -3.5,-0.93 -0.96,-0.63 -1.59,-1.55 -1.9,-2.78 l 2.89,-0.65 c 0.33,1.24 1.23,1.87 2.72,1.87 0.72,0 1.25,-0.14 1.6,-0.41 0.35,-0.28 0.53,-0.61 0.53,-1 0,-0.39 -0.16,-0.69 -0.48,-0.91 -0.32,-0.22 -0.93,-0.42 -1.85,-0.61 -1.7,-0.35 -2.91,-0.83 -3.64,-1.44 -0.72,-0.61 -1.08,-1.51 -1.08,-2.68 0,-1.17 0.43,-2.19 1.29,-3 0.87,-0.81 2.04,-1.22 3.52,-1.22 2.62,0 4.3,1.05 5.05,3.14 z M 16.75,33.75 V 39 c 1.25,1 4.5,2.75 9,2.75 5,0 8.5,-2 10,-2.75 1,0.75 4.75,3 10,3 4.75,-0.25 8,-2.25 9.25,-3 1,0.75 4.75,3 9.75,3 C 69,41.75 72,40 73.25,39 V 34.25 C 72.25,35 69,37 64.5,37 c -5.25,-0.25 -8.75,-2.75 -9.75,-3.5 -1,0.75 -4.5,3.25 -9.5,3.25 -5,0 -8.5,-2.5 -9.5,-3.25 -1.25,0.75 -4.75,3.25 -9.75,3.25 -5,0 -8.25,-2.25 -9.25,-3 z m -0.5,9 V 48 c 1.5,1 4.75,2.75 9,2.75 5,0 8.75,-2 10,-2.75 1.25,0.75 4.75,3 10,3 4.75,-0.25 8,-2.25 9.25,-3 1.25,0.75 4.75,3 9.75,2.75 C 68.5,50.75 71.75,49 73,48 V 43.25 C 71.75,44 68.5,46 64,46 c -5,-0.25 -8.5,-2.75 -9.5,-3.5 -1,0.75 -4.5,3.25 -9.5,3.25 -5.25,0 -8.75,-2.5 -9.75,-3.25 -1,0.75 -4.5,3.25 -9.75,3.25 -4.75,0 -8,-2.25 -9.25,-3 z" />
</svg>
