<?xml version="1.0" encoding="UTF-8" standalone="no"?>
<!-- Created with Inkscape (http://www.inkscape.org/) -->

<svg
   width="91"
   height="91"
   viewBox="0 0 24.077083 24.077083"
   version="1.1"
   id="svg5"
   inkscape:version="1.1.2 (b8e25be833, 2022-02-05)"
   sodipodi:docname="USR_ResourceType_OtherResource.svg"
   inkscape:export-filename="C:\Users\15402\OneDrive\Desktop\To Upload\USR_ResourceType_OtherResource.png"
   inkscape:export-xdpi="270.06595"
   inkscape:export-ydpi="270.06595"
   xmlns:inkscape="http://www.inkscape.org/namespaces/inkscape"
   xmlns:sodipodi="http://sodipodi.sourceforge.net/DTD/sodipodi-0.dtd"
   xmlns="http://www.w3.org/2000/svg"
   xmlns:svg="http://www.w3.org/2000/svg">
  <sodipodi:namedview
     id="namedview7"
     pagecolor="#ffffff"
     bordercolor="#000000"
     borderopacity="0.25"
     inkscape:showpageshadow="2"
     inkscape:pageopacity="0.0"
     inkscape:pagecheckerboard="true"
     inkscape:deskcolor="#d1d1d1"
     inkscape:document-units="px"
     showgrid="false"
     showguides="true"
     inkscape:zoom="8"
     inkscape:cx="29.75"
     inkscape:cy="42"
     inkscape:window-width="1920"
     inkscape:window-height="974"
     inkscape:window-x="-11"
     inkscape:window-y="-11"
     inkscape:window-maximized="1"
     inkscape:current-layer="svg5"
     inkscape:pageshadow="2"
     inkscape:guide-bbox="true">
    <sodipodi:guide
       position="-0.066145832,23.944791"
       orientation="0,-1"
       id="guide132"
       inkscape:locked="false" />
    <sodipodi:guide
       position="0.13332519,24.143229"
       orientation="1,0"
       id="guide184"
       inkscape:locked="false" />
    <sodipodi:guide
       position="23.945825,-0.037207031"
       orientation="1,0"
       id="guide186"
       inkscape:locked="false" />
    <sodipodi:guide
       position="24.133927,0.13022461"
       orientation="0,-1"
       id="guide188"
       inkscape:locked="false" />
    <sodipodi:guide
       position="12.04091,8.9609034"
       orientation="1,0"
       id="guide190"
       inkscape:locked="false" />
    <sodipodi:guide
       position="12.324466,12.036173"
       orientation="0,-1"
       id="guide192"
       inkscape:locked="false" />
    <sodipodi:guide
       position="22.225,14.816666"
       orientation="1,0"
       id="guide1133" />
    <sodipodi:guide
       position="12.04091,5.2585937"
       orientation="1,0"
       id="guide1222" />
    <sodipodi:guide
       position="27.648958,4.332552"
       orientation="1,0"
       id="guide1224" />
    <sodipodi:guide
       position="22.225,6.6476562"
       orientation="1,0"
       id="guide1226" />
  </sodipodi:namedview>
  <defs
     id="defs2">
    <pattern
       id="EMFhbasepattern"
       patternUnits="userSpaceOnUse"
       width="6"
       height="6"
       x="0"
       y="0" />
  </defs>
  <path
     style="fill:#ffffff;fill-opacity:1;fill-rule:nonzero;stroke:none;stroke-width:0.198437"
     d="m 8.8635409,20.769791 c -4.8286453,0 -8.73124924,-3.902605 -8.73124924,-8.73125 0,-4.8286454 3.90260394,-8.7312494 8.73124924,-8.7312494 6.3500011,0 6.3500011,0 6.3500011,0 4.828645,0 8.731249,3.902604 8.731249,8.7312494 0,4.828645 -3.902604,8.73125 -8.731249,8.73125 z"
     id="path197" />
  <path
     style="fill:none;stroke:#181818;stroke-width:0.92604px;stroke-linecap:butt;stroke-linejoin:miter;stroke-miterlimit:10;stroke-dasharray:none;stroke-opacity:1"
     d="m 8.8635409,19.446874 c -4.101041,0 -7.4083326,-3.307292 -7.4083326,-7.408333 0,-4.1010414 3.3072916,-7.4083324 7.4083326,-7.4083324 6.3500011,0 6.3500011,0 6.3500011,0 4.101041,0 7.408332,3.307291 7.408332,7.4083324 0,4.101041 -3.307291,7.408333 -7.408332,7.408333 z"
     id="path199" />
  <path
     id="path893"
     style="font-size:6.61045px;line-height:125%;font-family:'Franklin Gothic Demi';letter-spacing:0px;word-spacing:0px;fill:#181818;stroke-width:0.198437"
     d="m 18.944129,12.342844 v 1.746218 H 17.90479 V 9.6831711 h 1.936656 q 0.535808,0 0.858583,0.1258826 0.326004,0.1226548 0.539036,0.4551143 0.213032,0.332459 0.213032,0.739156 0,0.794029 -0.764979,1.139399 l 0.813396,1.946339 h -1.139399 l -0.67783,-1.746218 z m 0,-1.875328 v 1.123261 h 0.63264 q 0.309865,0 0.448659,-0.04196 0.142021,-0.04519 0.251765,-0.193666 0.109744,-0.151705 0.109744,-0.34537 0,-0.183982 -0.109744,-0.329231 -0.109744,-0.14525 -0.238854,-0.177527 -0.12911,-0.03551 -0.484164,-0.03551 z m -1.606442,0.05487 h -2.101271 v 0.903773 h 1.652612 v 0.829534 h -1.652612 v 0.961872 h 2.101271 V 14.08906 H 14.187394 V 9.6831711 h 3.150293 z M 13.518097,9.6831691 V 14.08906 H 12.504581 V 12.271832 H 11.126328 V 14.08906 H 10.112811 V 9.6831711 h 1.013517 v 1.7171679 h 1.378253 V 9.6831711 Z m -3.8752398,0 V 10.554666 H 8.5518748 v 3.534396 H 7.5060809 V 10.554666 H 6.408643 V 9.6831711 Z m -5.263671,4.4736739 q -0.8908614,0 -1.378253,-0.668146 -0.4873916,-0.668146 -0.4873916,-1.617107 0,-0.9651 0.4938471,-1.610652 0.4938471,-0.6455518 1.4073028,-0.6455518 0.923139,0 1.391164,0.6907408 0.4712528,0.687512 0.4712528,1.575146 0,0.958644 -0.4841638,1.617107 -0.4841638,0.658463 -1.4137583,0.658463 z m 0.02905,-3.699012 q -0.8133952,0 -0.8133952,1.42667 0,1.429897 0.8133952,1.429897 0.7875731,0 0.7875731,-1.42667 0,-1.429897 -0.7875731,-1.429897 z" />
</svg>
