<?xml version="1.0" encoding="UTF-8" standalone="no"?>
<!-- Created with Inkscape (http://www.inkscape.org/) -->

<svg
   width="91"
   height="91"
   version="1.1"
   viewBox="0 0 24.077 24.077"
   id="svg226"
   sodipodi:docname="USR_ResourceType_USRTaskForce.svg"
   inkscape:version="1.1.2 (b8e25be833, 2022-02-05)"
   xmlns:inkscape="http://www.inkscape.org/namespaces/inkscape"
   xmlns:sodipodi="http://sodipodi.sourceforge.net/DTD/sodipodi-0.dtd"
   xmlns="http://www.w3.org/2000/svg"
   xmlns:svg="http://www.w3.org/2000/svg">
  <defs
     id="defs230">
    <pattern
       id="EMFhbasepattern"
       patternUnits="userSpaceOnUse"
       width="6"
       height="6"
       x="0"
       y="0" />
  </defs>
  <sodipodi:namedview
     id="namedview228"
     pagecolor="#ffffff"
     bordercolor="#000000"
     borderopacity="0.25"
     inkscape:showpageshadow="2"
     inkscape:pageopacity="0.0"
     inkscape:pagecheckerboard="true"
     inkscape:deskcolor="#d1d1d1"
     showgrid="false"
     showguides="true"
     inkscape:zoom="12.88333"
     inkscape:cx="69.003898"
     inkscape:cy="46.727049"
     inkscape:window-width="3840"
     inkscape:window-height="1514"
     inkscape:window-x="2869"
     inkscape:window-y="-11"
     inkscape:window-maximized="1"
     inkscape:current-layer="svg226"
     inkscape:pageshadow="2" />
  <path
     style="fill:#ffffff;fill-opacity:1;fill-rule:nonzero;stroke:none;stroke-width:0.198436"
     d="m 8.8635104,20.76972 c -4.8286287,0 -8.73121919,-3.902591 -8.73121919,-8.73122 0,-4.8286286 3.90259049,-8.7312198 8.73121919,-8.7312198 6.3499776,0 6.3499776,0 6.3499776,0 4.828629,0 8.73122,3.9025912 8.73122,8.7312198 0,4.828629 -3.902591,8.73122 -8.73122,8.73122 z"
     id="path352" />
  <path
     style="fill:none;stroke:#181818;stroke-width:0.92604px;stroke-linecap:butt;stroke-linejoin:miter;stroke-miterlimit:10;stroke-dasharray:none;stroke-opacity:1"
     d="m 8.8635104,19.446808 c -4.1010267,0 -7.4083071,-3.30728 -7.4083071,-7.408308 0,-4.1010273 3.3072804,-7.4083076 7.4083071,-7.4083076 6.3499776,0 6.3499776,0 6.3499776,0 4.101027,0 7.408307,3.3072803 7.408307,7.4083076 0,4.101028 -3.30728,7.408308 -7.408307,7.408308 z"
     id="path354" />
  <path
     id="path1056"
     d="m 15.54176,14.391077 h -2.062529 v 0.98769 h 1.630011 v 0.823075 h -1.630011 v 1.723615 H 12.40762 v -4.405871 h 3.13414 z m -3.576341,-0.871491 v 0.871491 h -1.090978 v 3.53438 H 9.8286523 v -3.53438 h -1.097433 v -0.871491 z"
     style="font-size:6.61042px;line-height:125%;font-family:'Franklin Gothic Demi';letter-spacing:0px;word-spacing:0px;fill:#181818;stroke-width:0.198436" />
  <path
     id="path1049"
     d="m 18.06116,10.358435 v 1.74621 H 17.021826 V 7.6987739 h 1.936647 q 0.535805,0 0.85858,0.125882 0.326002,0.1226543 0.539033,0.4551119 0.213031,0.3324577 0.213031,0.7391535 0,0.7940251 -0.764975,1.1393937 l 0.813391,1.94633 h -1.139394 l -0.677826,-1.74621 z m 0,-1.8753193 v 1.123255 h 0.632638 q 0.309863,0 0.448656,-0.041961 0.142021,-0.045188 0.251764,-0.1936646 0.109743,-0.151704 0.109743,-0.3453686 0,-0.1839815 -0.109743,-0.32923 -0.109743,-0.1452484 -0.238853,-0.1775259 -0.12911,-0.035505 -0.484162,-0.035505 z m -1.591278,1.2168596 q -0.151704,0.7391537 -0.719787,1.4008407 0.20012,0.206576 0.451884,0.206576 0.09038,0 0.267903,-0.01937 v 0.784342 q -0.238854,0.06133 -0.442201,0.06133 -0.590678,0 -0.952185,-0.422834 -0.603588,0.480934 -1.378247,0.480934 -0.845669,0 -1.262048,-0.422835 -0.413151,-0.422834 -0.413151,-0.965095 0,-0.8779466 1.090977,-1.2749591 Q 12.858036,9.2061304 12.78057,9.0286045 12.70633,8.8478508 12.70633,8.6445029 q 0,-0.4647951 0.37119,-0.7488366 0.371191,-0.2872693 0.98769,-0.2872693 0.622955,0 0.965096,0.3130912 0.345368,0.3098635 0.345368,0.7811141 0,0.7262425 -0.82953,1.0683834 l 0.619727,0.6745983 Q 15.433776,10.155087 15.55643,9.5740933 Z M 14.103945,9.2287246 q 0.471251,-0.1742981 0.471251,-0.5099835 0,-0.1807537 -0.12911,-0.3098635 -0.125882,-0.1291098 -0.351824,-0.1291098 -0.180754,0 -0.30018,0.093605 -0.116199,0.093605 -0.116199,0.2420808 0,0.1807537 0.242081,0.4260623 z M 13.63915,10.113127 q -0.516439,0.177526 -0.516439,0.616499 0,0.258219 0.183981,0.455112 0.187209,0.193664 0.500301,0.193664 0.40024,0 0.732697,-0.264675 z M 11.483017,8.6670971 10.605071,8.9608219 Q 10.427545,8.4379273 9.8530061,8.4379273 q -0.6132714,0 -0.6132714,0.3970125 0,0.1581595 0.112971,0.2679028 0.1161988,0.1097433 0.5196669,0.1904369 0.6745984,0.1355653 0.9876894,0.2743583 0.313091,0.138793 0.526123,0.4486562 0.216258,0.306636 0.216258,0.68751 0,0.597132 -0.461567,1.032878 -0.45834,0.435745 -1.362108,0.435745 -0.6778263,0 -1.1555325,-0.306635 -0.4744784,-0.309864 -0.6261824,-0.91668 l 0.9554123,-0.216259 q 0.1613873,0.6165 0.8973129,0.6165 0.3550517,0 0.5293497,-0.135566 0.174299,-0.138793 0.174299,-0.32923 0,-0.193664 -0.15816,-0.30018 Q 10.237108,10.477862 9.7852235,10.384257 8.9427822,10.209959 8.5845026,9.9097787 8.226223,9.6063707 8.226223,9.0253768 q 0,-0.5874495 0.4260622,-0.9909175 0.42929,-0.4034681 1.161988,-0.4034681 1.2975528,0 1.6687438,1.0361059 z M 7.6194068,7.6987739 v 2.7435821 q 0,0.664916 -0.1517039,0.990918 -0.151704,0.322774 -0.5616275,0.532578 -0.4066958,0.206575 -1.0425614,0.206575 -0.6358657,0 -1.0135117,-0.187209 Q 4.4755839,11.798009 4.2883748,11.45264 4.1011656,11.107272 4.1011656,10.442356 V 7.6987739 h 1.1200273 v 2.7435821 q 0,0.355052 0.058099,0.522895 0.061327,0.167843 0.238853,0.267903 0.1807537,0.09683 0.442201,0.09683 0.290497,0 0.4712507,-0.09683 0.1839814,-0.09683 0.2420808,-0.254992 0.061327,-0.161387 0.061327,-0.535806 V 7.6987739 Z"
     style="font-size:6.61042px;line-height:125%;font-family:'Franklin Gothic Demi';letter-spacing:0px;word-spacing:0px;fill:#181818;stroke-width:0.198436" />
</svg>
