<?xml version="1.0" encoding="UTF-8" standalone="no"?>
<svg
   width="91"
   height="91"
   version="1.1"
   viewBox="0 0 91 91"
   id="svg14"
   sodipodi:docname="HART Resource.svg"
   inkscape:version="1.2.2 (732a01da63, 2022-12-09)"
   xmlns:inkscape="http://www.inkscape.org/namespaces/inkscape"
   xmlns:sodipodi="http://sodipodi.sourceforge.net/DTD/sodipodi-0.dtd"
   xmlns="http://www.w3.org/2000/svg"
   xmlns:svg="http://www.w3.org/2000/svg">
  <sodipodi:namedview
     id="namedview16"
     pagecolor="#ffffff"
     bordercolor="#000000"
     borderopacity="0.25"
     inkscape:showpageshadow="2"
     inkscape:pageopacity="0.0"
     inkscape:pagecheckerboard="true"
     inkscape:deskcolor="#d1d1d1"
     showgrid="false"
     inkscape:zoom="6.4416651"
     inkscape:cx="18.395865"
     inkscape:cy="43.001304"
     inkscape:window-width="1920"
     inkscape:window-height="1009"
     inkscape:window-x="-8"
     inkscape:window-y="-8"
     inkscape:window-maximized="1"
     inkscape:current-layer="svg14" />
  <defs
     id="defs4">
    <style
       id="style2">.cls-1 {
        fill: #fff;
      }

      .cls-2 {
        font-family: FranklinGothic-Medium, 'Franklin Gothic Medium';
        font-size: 19px;
        font-weight: 500;
        letter-spacing: -.01em;
      }

      .cls-3 {
        fill: none;
        stroke: #000;
        stroke-miterlimit: 10;
        stroke-width: 3.5px;
      }</style>
    <pattern
       id="EMFhbasepattern"
       patternUnits="userSpaceOnUse"
       width="6"
       height="6"
       x="0"
       y="0" />
  </defs>
  <path
     class="cls-1"
     d="m 33.5,78.51 c -18.22,0 -33,-14.78 -33,-33.01 0,-18.23 14.78,-33 33,-33 h 24 c 18.23,0 33,14.78 33,33 0,18.22 -14.78,33 -33,33 h -24 z"
     id="path6"
     style="display:inline" />
  <path
     class="cls-3"
     d="m 33.5,73.51 c -15.44,0 -28,-12.56 -28,-28 0,-15.44 12.56,-28.01 28,-28.01 h 24 c 15.44,0 28,12.56 28,28 0,15.44 -12.56,28 -28,28 h -24 z"
     stroke="#181818"
     id="path8"
     style="display:inline" />
  <path
     d="m 75.235,44.77 v -0.77378 c -0.25793,-0.51585 -1.0317,-1.2896 -2.0634,-1.2896 v -2.3213 c 0,-0.25793 0,-0.25793 0.25793,-0.51586 v -2.8372 h -1.2896 v 5.6744 c -0.25793,0.25793 -0.25793,0.25793 -0.51585,0.25793 -0.51585,0.51585 -0.51585,1.0317 -0.51585,1.2896 h -1.0317 v -0.51586 h -3.611 v 1.5476 h 4.6427 v 0.77378 c -1.8055,3.0951 -3.611,6.4482 -5.6744,9.5433 0,0.25793 -0.25793,0.51585 -0.51585,0.77378 -0.51585,0.25793 -1.2896,0 -1.5476,0 -2.0634,-0.77378 -4.1268,-1.0317 -6.1902,-1.5476 -1.0317,-0.25793 -2.5793,-0.51585 -4.3848,-1.0317 -2.3213,-1.2896 -4.6427,-2.5793 -7.222,-3.8689 h -2.8372 v -0.77378 h -0.51586 v -1.5476 h -1.0317 v 1.2896 l -0.51585,0.51585 h -0.77378 c -0.25793,0 -0.51585,-0.25793 -0.51585,-0.25793 h -1.2896 v -2.8372 c 7.9957,-0.51585 15.991,-1.0317 23.987,-1.5476 v -1.8055 c -16.249,1.2896 -32.757,2.5793 -49.006,3.8689 v 1.5476 c 7.222,-0.51586 14.444,-1.0317 21.666,-1.5476 v 2.5793 c -1.8055,0.51586 -3.0951,0.77378 -3.8689,1.0317 -1.0317,0.25793 -3.3531,0.77378 -3.8689,1.8055 0,0 -0.25793,0.25793 -0.51585,0.51586 -0.25793,0.25793 -0.51586,0.25793 -1.0317,0.51585 l -0.51585,0.51585 c -0.77378,1.0317 -1.5476,2.0634 -2.0634,3.0951 -0.25793,0.25793 -0.25793,0.51585 -0.51585,0.51585 -0.25793,0.51585 -0.77378,0.51585 -1.0317,0.77378 0,0 -0.51585,0.25792 -0.77378,1.0317 -0.77378,1.0317 -0.51585,2.0634 -0.51585,2.0634 0,0.51585 0.25793,1.0317 0.51585,1.2896 0.51586,0.25793 1.0317,0.25793 2.5793,0.51585 0.51585,0 1.0317,0.25793 1.2896,0.25793 h 5.6744 c -0.51585,0.25793 -1.0317,1.0317 -1.0317,1.8055 0,1.2896 1.0317,2.3213 2.3213,2.3213 1.2896,0 2.5793,-1.0317 2.5793,-2.3213 0,-0.77378 -0.51585,-1.5476 -1.0317,-1.8055 h 7.9957 4.1268 c 3.611,-0.25793 4.3848,-0.51585 8.7695,-0.77378 4.9006,-0.25793 5.1585,0 7.4799,-0.25793 0,0.25793 0.25793,0.51586 0.51585,0.77378 0.51585,0.25793 1.0317,0.77378 1.5476,1.2896 v 0.25793 c -0.25793,0.77378 0.25793,1.2896 0.77378,1.5476 0.51585,0 1.0317,-0.51585 1.0317,-1.2896 0.25793,-0.77378 -0.25793,-1.2896 -0.77378,-1.2896 -0.25793,-0.25793 -0.51585,0 -0.77378,0.25793 -0.25793,-0.25793 -0.51586,-0.51585 -0.51586,-1.0317 -0.25793,-0.51586 -0.25793,-0.77378 -0.25793,-1.0317 0.77378,-0.25793 1.8055,-0.51585 3.0951,-1.0317 3.8689,-1.0317 3.611,-1.0317 3.8689,-1.0317 0,0 0.51585,0 0.51585,-0.25793 0.25793,-0.25793 -0.25793,-1.0317 -0.51585,-1.2896 -0.25793,-0.25793 -0.51585,-0.77378 -1.0317,-1.0317 1.0317,-2.5793 2.3213,-4.9006 3.353,-7.222 0.77378,-1.2896 1.8055,-2.5793 2.5793,-3.8689 1.2896,0 2.5793,0.25793 3.8689,0.25793 v -1.5476 z m -51.07,13.154 c 0,0 -0.25793,0 -0.51586,-0.25793 -0.25793,0 -0.25793,-0.25793 -0.25793,-0.51586 0,0 0.25793,-0.25793 0.25793,-0.51585 0.51586,-0.77378 1.0317,-1.5476 1.5476,-2.5793 0.25793,0.25793 0.51585,0.25793 0.77378,0.25793 -0.25793,0.51585 -0.51585,1.0317 -0.51585,1.2896 -0.25793,0.77378 -0.51585,1.0317 -0.77378,1.8055 -0.25793,0.25793 -0.25793,0.25793 -0.51585,0.51585 z m 4.1268,1.2896 h -2.8372 c -0.25793,0 -0.51585,0 -0.51585,-0.77378 0.77378,-1.5476 1.0317,-2.5793 1.5476,-3.8689 h 1.8055 z m 3.0951,6.7061 c -0.25793,0 -0.77378,-0.25793 -0.77378,-0.77378 0,-0.51586 0.51586,-0.77378 0.77378,-0.77378 0.51585,0 0.77378,0.25793 0.77378,0.77378 0,0.51585 -0.25793,0.77378 -0.77378,0.77378 z m 1.8055,-6.7061 h -3.0951 v -4.6427 h 3.0951 z m 8.5116,0 h -6.4482 v -4.6427 h 6.4482 z"
     fill="#181818"
     id="path10"
     style="display:inline" />
  <path
     d="M 64.485,38.78 H 62.0358 V 28.074 h -3.3677 v -1.9575 h 9.1846 V 28.074 H 64.485 Z m -6.5732,0 h -2.4121 l -1.9668,-5.2046 h -3.21 V 38.78 H 48.0407 V 26.116 h 5.4922 q 2.2915,0 3.3677,1.0391 1.0762,1.0298 1.0762,2.6719 0,2.4399 -2.2822,3.3584 z m -7.5889,-7.0322 h 2.8389 q 1.2339,0 1.8369,-0.51953 0.60303,-0.51953 0.60303,-1.4287 0,-0.83496 -0.59375,-1.3452 -0.59375,-0.51953 -1.6606,-0.51953 h -3.0244 z M 46.7092,38.78 H 44.2693 L 43.2581,35.7649 H 38.3875 L 37.39482,38.78 h -1.9482 l 4.2026,-12.664 h 2.811 z m -4.0635,-4.8428 -1.8462,-5.6499 -1.8462,5.6499 z M 34.1799,38.78 H 31.8977 V 33.2785 H 27.0642 V 38.78 H 24.782 V 26.116 h 2.2822 v 5.2046 h 4.8335 V 26.116 h 2.2822 z"
     fill="#181818"
     id="path12"
     style="display:inline" />
</svg>
