<?xml version="1.0" encoding="UTF-8" standalone="no"?>
<!-- Created with Inkscape (http://www.inkscape.org/) -->

<svg
   width="91"
   height="91"
   viewBox="0 0 24.077083 24.077083"
   version="1.1"
   id="svg9221"
   inkscape:version="1.1.2 (b8e25be833, 2022-02-05)"
   sodipodi:docname="USR_ResourceType_SwiftwaterRescueTeam.svg"
   xmlns:inkscape="http://www.inkscape.org/namespaces/inkscape"
   xmlns:sodipodi="http://sodipodi.sourceforge.net/DTD/sodipodi-0.dtd"
   xmlns="http://www.w3.org/2000/svg"
   xmlns:svg="http://www.w3.org/2000/svg">
  <sodipodi:namedview
     id="namedview9223"
     pagecolor="#ffffff"
     bordercolor="#000000"
     borderopacity="0.25"
     inkscape:showpageshadow="2"
     inkscape:pageopacity="0.0"
     inkscape:pagecheckerboard="true"
     inkscape:deskcolor="#d1d1d1"
     inkscape:document-units="px"
     showgrid="false"
     showguides="true"
     inkscape:zoom="11.313709"
     inkscape:cx="54.00528"
     inkscape:cy="51.530406"
     inkscape:window-width="3840"
     inkscape:window-height="1514"
     inkscape:window-x="2869"
     inkscape:window-y="-11"
     inkscape:window-maximized="1"
     inkscape:current-layer="svg9221"
     inkscape:pageshadow="2">
    <sodipodi:guide
       position="0.13154672,24.13701"
       orientation="1,0"
       id="guide10455"
       inkscape:locked="false" />
    <sodipodi:guide
       position="-0.14762465,23.945536"
       orientation="0,-1"
       id="guide10457"
       inkscape:locked="false" />
    <sodipodi:guide
       position="24.244515,0.13022462"
       orientation="0,-1"
       id="guide10459"
       inkscape:locked="false" />
    <sodipodi:guide
       position="23.946858,-0.23564452"
       orientation="1,0"
       id="guide10461"
       inkscape:locked="false" />
    <sodipodi:guide
       position="12.037986,-0.36137407"
       orientation="1,0"
       id="guide10463"
       inkscape:locked="false" />
    <sodipodi:guide
       position="11.823127,12.037635"
       orientation="0,-1"
       id="guide10465"
       inkscape:locked="false" />
  </sodipodi:namedview>
  <defs
     id="defs9218">
    <pattern
       id="EMFhbasepattern"
       patternUnits="userSpaceOnUse"
       width="6"
       height="6"
       x="0"
       y="0" />
  </defs>
  <path
     style="fill:#ffffff;fill-opacity:1;fill-rule:nonzero;stroke:none;stroke-width:0.198437"
     d="m 8.8635422,20.769791 c -4.8286463,0 -8.73125054,-3.902605 -8.73125054,-8.73125 0,-4.8286456 3.90260424,-8.7312494 8.73125054,-8.7312494 6.3499988,0 6.3499988,0 6.3499988,0 4.828646,0 8.73125,3.9026038 8.73125,8.7312494 0,4.828645 -3.902604,8.73125 -8.73125,8.73125 z"
     id="path10470" />
  <path
     style="fill:none;stroke:#181818;stroke-width:0.92604px;stroke-linecap:butt;stroke-linejoin:miter;stroke-miterlimit:10;stroke-dasharray:none;stroke-opacity:1"
     d="m 8.8635422,19.446874 c -4.1010421,0 -7.4083338,-3.307292 -7.4083338,-7.408333 0,-4.1010414 3.3072917,-7.4083328 7.4083338,-7.4083328 6.3499988,0 6.3499988,0 6.3499988,0 4.101041,0 7.408333,3.3072914 7.408333,7.4083328 0,4.101041 -3.307292,7.408333 -7.408333,7.408333 z"
     id="path10472" />
  <path
     id="path10484"
     style="fill:#181818;fill-opacity:1;fill-rule:nonzero;stroke:#181818;stroke-width:0.0661458px;stroke-linecap:butt;stroke-linejoin:miter;stroke-miterlimit:10;stroke-dasharray:none;stroke-opacity:1"
     d="m 4.5640626,12.236978 c 0,0.463021 0,0.926043 0,1.389063 0.3307292,0.264583 1.1906249,0.727604 2.3812496,0.727604 1.322917,0 2.248958,-0.529167 2.645834,-0.727604 0.264583,0.198437 1.2567698,0.79375 2.6458328,0.79375 1.256771,-0.06615 2.116666,-0.595313 2.447395,-0.79375 0.264584,0.198437 1.256771,0.79375 2.579688,0.79375 1.124479,-0.06615 1.918229,-0.529167 2.248958,-0.79375 0,-0.396875 0,-0.859896 0,-1.256771 -0.264583,0.198438 -1.124479,0.727604 -2.315104,0.727604 -1.389062,-0.06614 -2.315104,-0.727604 -2.579687,-0.926041 -0.264584,0.198437 -1.190625,0.859896 -2.513542,0.859896 -1.322916,0 -2.2489578,-0.661459 -2.5135408,-0.859896 -0.330729,0.198437 -1.256771,0.859896 -2.579688,0.859896 -1.2567707,0 -2.1828124,-0.595313 -2.4473956,-0.793751 z m -0.1322917,2.38125 c 0,0.463021 0,0.926042 0,1.389063 0.3968749,0.264583 1.2567709,0.727604 2.3812493,0.727604 1.322917,0 2.315105,-0.529167 2.645834,-0.727604 0.330729,0.198437 1.2567698,0.79375 2.6458328,0.79375 1.256771,-0.06615 2.116667,-0.595313 2.447396,-0.79375 0.330729,0.198437 1.256771,0.79375 2.579687,0.727604 1.124479,0 1.984375,-0.463021 2.315104,-0.727604 0,-0.396875 0,-0.859896 0,-1.256771 -0.330729,0.198437 -1.190625,0.727604 -2.38125,0.727604 -1.322916,-0.06614 -2.248958,-0.727604 -2.513541,-0.926041 -0.264584,0.198437 -1.190625,0.859896 -2.513542,0.859896 -1.389062,0 -2.3151038,-0.661459 -2.5796868,-0.859896 -0.264584,0.198437 -1.190625,0.859896 -2.579688,0.859896 -1.2567704,0 -2.1166661,-0.595313 -2.4473953,-0.793751 z" />
  <path
     id="path10908"
     d="M 19.321451,7.5166818 V 8.2148586 H 18.447437 V 11.046353 H 17.609625 V 8.2148586 H 16.730439 V 7.5166818 Z m -2.66083,0.6981768 h -1.652352 v 0.791267 h 1.305849 V 9.6655148 H 15.008269 V 11.046353 H 14.14977 V 7.5166818 h 2.510851 z M 13.441251,7.5166818 V 11.046353 H 12.616368 V 7.5166818 Z m -1.212759,0 -0.889529,3.5296712 H 10.529595 L 9.9477809,8.7113399 9.3892395,11.046353 H 8.5824574 L 7.6748276,7.5166818 h 0.8429838 l 0.486138,2.1540047 q 0.00259,0.015515 0.028444,0.1137769 0.010343,0.036202 0.028444,0.1086053 L 9.6374801,7.5166818 h 0.7628229 l 0.594743,2.3763869 q 0.0181,-0.067232 0.05172,-0.2223822 L 11.548419,7.5166818 Z M 7.3567693,8.2924338 6.6534208,8.5277452 q -0.1422212,-0.418906 -0.6025007,-0.418906 -0.4913096,0 -0.4913096,0.3180583 0,0.1267061 0.090504,0.2146247 0.09309,0.087918 0.4163202,0.1525645 0.5404406,0.1086053 0.7912671,0.2197964 0.2508264,0.1111912 0.4214919,0.3594318 0.1732512,0.2456548 0.1732512,0.5507839 0,0.4783802 -0.3697751,0.8274692 -0.3671892,0.349088 -1.0912244,0.349088 -0.5430264,0 -0.9257307,-0.245655 -0.3801185,-0.24824 -0.501653,-0.734378 l 0.765409,-0.1732516 q 0.129292,0.4938956 0.7188635,0.4938956 0.2844424,0 0.4240778,-0.108605 0.1396354,-0.111192 0.1396354,-0.263756 0,-0.1551506 -0.1267062,-0.2404833 Q 6.358635,9.74309 5.9966174,9.6681006 5.3217132,9.5284653 5.034685,9.2879822 4.7476568,9.0449132 4.7476568,8.579462 q 0,-0.4706228 0.3413308,-0.7938528 0.3439167,-0.32323 0.9309024,-0.32323 1.0395077,0 1.3368793,0.8300546 z"
     style="font-size:5.2958px;line-height:125%;font-family:'Franklin Gothic Demi';letter-spacing:0px;word-spacing:0px;display:inline;fill:#181818;stroke-width:0.198437" />
</svg>
