<?xml version="1.0" encoding="UTF-8" standalone="no"?>
<!-- Generator: Adobe Illustrator 27.0.1, SVG Export Plug-In . SVG Version: 6.00 Build 0)  -->

<svg
   enable-background="new 0 0 91 91"
   version="1.1"
   viewBox="0 0 91 91"
   xml:space="preserve"
   id="svg967"
   sodipodi:docname="USR_ResourceType_CanineSearchTeam_LF.svg"
   inkscape:version="1.1.2 (b8e25be833, 2022-02-05)"
   xmlns:inkscape="http://www.inkscape.org/namespaces/inkscape"
   xmlns:sodipodi="http://sodipodi.sourceforge.net/DTD/sodipodi-0.dtd"
   xmlns="http://www.w3.org/2000/svg"
   xmlns:svg="http://www.w3.org/2000/svg"><defs
   id="defs971" /><sodipodi:namedview
   id="namedview969"
   pagecolor="#ffffff"
   bordercolor="#666666"
   borderopacity="1.0"
   inkscape:pageshadow="2"
   inkscape:pageopacity="0.0"
   inkscape:pagecheckerboard="true"
   showgrid="false"
   inkscape:zoom="8.4615385"
   inkscape:cx="45.618182"
   inkscape:cy="45.5"
   inkscape:window-width="1920"
   inkscape:window-height="974"
   inkscape:window-x="-11"
   inkscape:window-y="-11"
   inkscape:window-maximized="1"
   inkscape:current-layer="svg967" />
<style
   type="text/css"
   id="style959">
	.st0{display:none;}
	.st1{display:inline;fill:#005F00;}
	.st2{fill:none;stroke:#000000;stroke-width:5;stroke-miterlimit:10;}
	.st3{fill:#FFFFFF;}
	.st4{fill:none;stroke:#000000;stroke-width:3.5;stroke-miterlimit:10;}
	.st5{display:inline;stroke:#000000;stroke-width:0.25;stroke-linecap:round;stroke-linejoin:round;stroke-miterlimit:10;}
	.st6{font-family:'MyriadPro-Bold';}
	.st7{font-size:22px;}
	.st8{font-size:18px;}
	.st9{font-size:13px;}
	.st10{display:inline;fill:#FFFFFF;}
	.st11{font-size:15px;}
	.st12{display:inline;}
	.st13{font-size:28px;}
	.st14{font-family:'FranklinGothic-Demi';}
	.st15{font-size:25px;}
	.st16{font-size:20px;}
	.st17{display:inline;fill:none;stroke:#000000;stroke-width:2;stroke-linecap:round;stroke-linejoin:round;stroke-miterlimit:10;}
	.st18{fill:none;stroke:#000000;stroke-width:3;stroke-linecap:round;stroke-linejoin:round;stroke-miterlimit:10;}
	.st19{fill:none;stroke:#000000;stroke-width:2.5;stroke-miterlimit:10;}
	.st20{display:inline;fill:none;stroke:#000000;stroke-width:3;stroke-linecap:round;stroke-linejoin:round;stroke-miterlimit:10;}
	.st21{fill:none;stroke:#000000;stroke-width:2.5;stroke-linecap:round;stroke-linejoin:round;stroke-miterlimit:10;}
	.st22{fill:none;stroke:#000000;stroke-width:2.5;stroke-linecap:round;stroke-miterlimit:10;}
	.st23{fill:none;stroke:#92278F;stroke-width:0.1;stroke-miterlimit:10;}
	.st24{fill:none;stroke:#000000;stroke-width:4;stroke-miterlimit:10;}
	.st25{display:inline;fill:#181818;stroke:#000000;stroke-width:0.1;stroke-miterlimit:10;}
	.st26{fill:#181818;stroke:#000000;stroke-width:0.1;stroke-miterlimit:10;}
	.st27{display:inline;fill-rule:evenodd;clip-rule:evenodd;}
</style>














<path
   d="m33.5 78.5c-18.25 0-33-14.75-33-33 0-18.25 14.75-33 33-33h24c18.25 0 33 14.75 33 33 0 18.25-14.75 33-33 33z"
   fill="#fff"
   id="path961" /><path
   d="m33.5 73.5c-15.5 0-28-12.5-28-28 0-15.5 12.5-28 28-28h24c15.5 0 28 12.5 28 28 0 15.5-12.5 28-28 28z"
   fill="none"
   stroke="#000"
   stroke-miterlimit="10"
   stroke-width="3.5px"
   id="path963" /><path
   d="m63.034 56.81q0 2.4545-0.63004 4.5678-0.63004 2.1133-1.9164 3.5571-1.3913 1.562-3.4521 2.3495-2.0608 0.77443-4.8041 0.77443-0.97131 0-2.1001-0.11813t-1.4832-0.21001v-3.8459h0.52504q0.39378 0.18376 1.1157 0.39378 0.73505 0.21001 1.9951 0.21001 1.0238 0 2.0083-0.24939 0.98444-0.26252 1.6932-0.8138 0.77442-0.59066 1.2732-1.4701 0.49878-0.89256 0.66942-2.1395-1.142 0.65629-2.1264 1.0107-0.97131 0.34127-2.4283 0.34127-1.1026 0-2.1133-0.26252-0.99757-0.27564-1.8245-0.84006-1.0894-0.77443-1.7457-2.0345-0.64317-1.2732-0.64317-3.2027 0-3.1371 2.1789-5.106 2.192-1.982 5.736-1.982 1.8245 0 3.229 0.48566 1.4176 0.47253 2.4414 1.457 1.1945 1.1288 1.7982 2.8746 0.60379 1.7457 0.60379 4.2528zm-5.0272-0.73505q0-1.6014-0.31502-2.6252-0.3019-1.0369-0.84006-1.6014-0.38065-0.42003-0.87943-0.60379-0.49878-0.18376-1.0501-0.18376-0.51191 0-0.98444 0.18376-0.4594 0.17064-0.89256 0.60379-0.4069 0.42003-0.66942 1.1026-0.24939 0.68254-0.24939 1.6276 0 0.91881 0.27564 1.5489 0.27564 0.61692 0.7613 0.98444 0.45941 0.3544 1.0763 0.49878 0.63004 0.14438 1.3651 0.14438 0.59066 0 1.2863-0.14438 0.69567-0.15751 1.0763-0.31502 0-0.14438 0.01313-0.4069 0.02625-0.27564 0.02625-0.8138zm-12.312 11.603h-6.1823l-5.841-7.823-1.1813 1.4307v6.3923h-5.0403v-19.544h5.0403v8.8468l6.983-8.8468h5.841l-7.6393 9.0437zm16.235-39.784h-9.2637v3.746h8.5875v3.8948h-8.5875v8.601h-5.166v-20.137h14.43zm-18.905 16.242h-14.524v-20.137h5.1931v16.242h9.3313z"
   enable-background="new 0 0 91 91"
   stroke-width=".72045"
   id="path965" /></svg>
