<?xml version="1.0" encoding="UTF-8" standalone="no"?>
<!-- Created with Inkscape (http://www.inkscape.org/) -->

<svg
   width="91"
   height="91"
   version="1.1"
   viewBox="0 0 24.077 24.077"
   id="svg2508"
   sodipodi:docname="USR_ResourceType_StillwaterRescueTeam.svg"
   inkscape:version="1.1.2 (b8e25be833, 2022-02-05)"
   xmlns:inkscape="http://www.inkscape.org/namespaces/inkscape"
   xmlns:sodipodi="http://sodipodi.sourceforge.net/DTD/sodipodi-0.dtd"
   xmlns="http://www.w3.org/2000/svg"
   xmlns:svg="http://www.w3.org/2000/svg">
  <defs
     id="defs2512">
    <pattern
       id="EMFhbasepattern"
       patternUnits="userSpaceOnUse"
       width="6"
       height="6"
       x="0"
       y="0" />
  </defs>
  <sodipodi:namedview
     id="namedview2510"
     pagecolor="#ffffff"
     bordercolor="#000000"
     borderopacity="0.25"
     inkscape:showpageshadow="2"
     inkscape:pageopacity="0.0"
     inkscape:pagecheckerboard="true"
     inkscape:deskcolor="#d1d1d1"
     showgrid="false"
     inkscape:zoom="12.88333"
     inkscape:cx="64.036239"
     inkscape:cy="40.827954"
     inkscape:window-width="3840"
     inkscape:window-height="1514"
     inkscape:window-x="2869"
     inkscape:window-y="-11"
     inkscape:window-maximized="1"
     inkscape:current-layer="svg2508"
     showguides="true"
     inkscape:pageshadow="2"
     inkscape:guide-bbox="true">
    <sodipodi:guide
       position="11.911346,25.452966"
       orientation="1,0"
       id="guide1264" />
    <sodipodi:guide
       position="-0.18483123,12.186191"
       orientation="0,-1"
       id="guide1266" />
  </sodipodi:namedview>
  <path
     d="m8.8635 20.77c-4.8286 0-8.7313-3.9026-8.7313-8.7312 0-4.8286 3.9026-8.7312 8.7313-8.7312h6.35c4.8286 0 8.7312 3.9026 8.7312 8.7312 0 4.8286-3.9026 8.7312-8.7312 8.7312z"
     fill="#fff"
     id="path2488" />
  <path
     d="m8.8635 19.447c-4.101 0-7.4083-3.3073-7.4083-7.4083 0-4.101 3.3073-7.4083 7.4083-7.4083h6.35c4.101 0 7.4083 3.3073 7.4083 7.4083 0 4.101-3.3073 7.4083-7.4083 7.4083z"
     fill="none"
     stroke="#000"
     stroke-miterlimit="10"
     stroke-width=".92604px"
     id="path2490"
     style="stroke:#181818;stroke-opacity:1" />
  <path
     id="path2639"
     style="font-size:5.2958px;font-family:'Franklin Gothic Demi';letter-spacing:0px;word-spacing:0px;display:inline;fill:#181818;fill-opacity:1;stroke-width:0.19844"
     d="m 16.626595,10.321622 h 1.404111 v 0.698176 H 15.788783 V 7.490127 h 0.837812 z m -2.666001,0 h 1.404111 v 0.698176 H 13.122782 V 7.490127 h 0.837812 z M 12.414261,7.490127 v 3.529671 H 11.589378 V 7.490127 Z m -1.179143,0 V 8.1883038 H 10.361105 V 11.019798 H 9.5232922 V 8.1883038 H 8.6441066 V 7.490127 Z M 8.36225,8.265879 7.6589015,8.5011904 Q 7.5166803,8.0822843 7.0564008,8.0822843 q -0.4913096,0 -0.4913096,0.3180583 0,0.1267062 0.090504,0.2146247 0.09309,0.087919 0.4163202,0.1525646 0.5404406,0.1086053 0.7912671,0.2197964 0.2508264,0.1111911 0.4214919,0.3594317 0.1732513,0.2456548 0.1732513,0.550784 0,0.47838 -0.3697752,0.827469 -0.3671892,0.349088 -1.0912244,0.349088 -0.5430264,0 -0.9257307,-0.245655 -0.3801185,-0.24824 -0.501653,-0.734378 L 6.3349515,9.9208165 q 0.129292,0.4938955 0.7188635,0.4938955 0.2844424,0 0.4240777,-0.108606 0.1396354,-0.111191 0.1396354,-0.263755 0,-0.1551504 -0.1267062,-0.2404831 Q 7.3641158,9.7165352 7.0020982,9.6415458 6.3271939,9.5019104 6.0401657,9.2614273 5.7531375,9.0183584 5.7531375,8.5529072 q 0,-0.4706229 0.3413308,-0.7938529 0.3439168,-0.32323 0.9309024,-0.32323 1.0395077,0 1.3368793,0.8300547 z m 11.057381,5.644479 H 4.5034325 V 12.590341 H 19.419631 Z m -15.0482003,0.72601 c 0,0.462006 0,0.924012 0,1.386019 0.3960053,0.264003 1.2540167,0.726009 2.3760315,0.726009 1.3200174,0 2.3100304,-0.528007 2.6400354,-0.726009 0.330004,0.198002 1.2540174,0.79201 2.6400344,0.79201 1.254017,-0.066 2.112029,-0.594008 2.442033,-0.79201 0.330004,0.198002 1.254017,0.79201 2.574034,0.726009 1.122015,0 1.980026,-0.462006 2.310031,-0.726009 0,-0.396006 0,-0.858012 0,-1.254017 -0.330005,0.198002 -1.188016,0.726009 -2.376032,0.726009 -1.320017,-0.066 -2.24403,-0.726009 -2.508033,-0.924012 -0.264003,0.198003 -1.188016,0.858011 -2.508033,0.858011 -1.386018,0 -2.3100304,-0.660008 -2.5740344,-0.858011 -0.264004,0.198003 -1.188016,0.858011 -2.5740344,0.858011 -1.2540168,0 -2.1120281,-0.594007 -2.4420325,-0.79201 z" />
</svg>
