<?xml version="1.0" encoding="UTF-8"?>
<svg width="91" height="91" version="1.1" viewBox="0 0 91 91" xmlns="http://www.w3.org/2000/svg">
 <defs>
  <style>.cls-1 {
        fill: #fff;
      }

      .cls-2 {
        font-family: FranklinGothic-Medium, 'Franklin Gothic Medium';
        font-size: 19px;
        font-weight: 500;
        letter-spacing: -.01em;
      }

      .cls-3 {
        fill: none;
        stroke: #000;
        stroke-miterlimit: 10;
        stroke-width: 3.5px;
      }</style>
 </defs>
 <path class="cls-1" d="m33.5 78.51c-18.22 0-33-14.78-33-33.01s14.78-33 33-33h24c18.23 0 33 14.78 33 33s-14.78 33-33 33h-24z"/>
 <path class="cls-3" d="m33.5 73.51c-15.44 0-28-12.56-28-28s12.56-28.01 28-28.01h24c15.44 0 28 12.56 28 28s-12.56 28-28 28h-24z" stroke="#181818"/>
 <path d="m75.235 44.77v-0.77378c-0.25793-0.51585-1.0317-1.2896-2.0634-1.2896v-2.3213c0-0.25793 0-0.25793 0.25793-0.51586v-2.8372h-1.2896v5.6744c-0.25793 0.25793-0.25793 0.25793-0.51585 0.25793-0.51585 0.51585-0.51585 1.0317-0.51585 1.2896h-1.0317v-0.51586h-3.611v1.5476h4.6427v0.77378c-1.8055 3.0951-3.611 6.4482-5.6744 9.5433 0 0.25793-0.25793 0.51585-0.51585 0.77378-0.51585 0.25793-1.2896 0-1.5476 0-2.0634-0.77378-4.1268-1.0317-6.1902-1.5476-1.0317-0.25793-2.5793-0.51585-4.3848-1.0317-2.3213-1.2896-4.6427-2.5793-7.222-3.8689h-2.8372v-0.77378h-0.51586v-1.5476h-1.0317v1.2896l-0.51585 0.51585h-0.77378c-0.25793 0-0.51585-0.25793-0.51585-0.25793h-1.2896v-2.8372c7.9957-0.51585 15.991-1.0317 23.987-1.5476v-1.8055c-16.249 1.2896-32.757 2.5793-49.006 3.8689v1.5476c7.222-0.51586 14.444-1.0317 21.666-1.5476v2.5793c-1.8055 0.51586-3.0951 0.77378-3.8689 1.0317-1.0317 0.25793-3.3531 0.77378-3.8689 1.8055 0 0-0.25793 0.25793-0.51585 0.51586-0.25793 0.25793-0.51586 0.25793-1.0317 0.51585l-0.51585 0.51585c-0.77378 1.0317-1.5476 2.0634-2.0634 3.0951-0.25793 0.25793-0.25793 0.51585-0.51585 0.51585-0.25793 0.51585-0.77378 0.51585-1.0317 0.77378 0 0-0.51585 0.25792-0.77378 1.0317-0.77378 1.0317-0.51585 2.0634-0.51585 2.0634 0 0.51585 0.25793 1.0317 0.51585 1.2896 0.51586 0.25793 1.0317 0.25793 2.5793 0.51585 0.51585 0 1.0317 0.25793 1.2896 0.25793h5.6744c-0.51585 0.25793-1.0317 1.0317-1.0317 1.8055 0 1.2896 1.0317 2.3213 2.3213 2.3213s2.5793-1.0317 2.5793-2.3213c0-0.77378-0.51585-1.5476-1.0317-1.8055h12.122c3.611-0.25793 4.3848-0.51585 8.7695-0.77378 4.9006-0.25793 5.1585 0 7.4799-0.25793 0 0.25793 0.25793 0.51586 0.51585 0.77378 0.51585 0.25793 1.0317 0.77378 1.5476 1.2896v0.25793c-0.25793 0.77378 0.25793 1.2896 0.77378 1.5476 0.51585 0 1.0317-0.51585 1.0317-1.2896 0.25793-0.77378-0.25793-1.2896-0.77378-1.2896-0.25793-0.25793-0.51585 0-0.77378 0.25793-0.25793-0.25793-0.51586-0.51585-0.51586-1.0317-0.25793-0.51586-0.25793-0.77378-0.25793-1.0317 0.77378-0.25793 1.8055-0.51585 3.0951-1.0317 3.8689-1.0317 3.611-1.0317 3.8689-1.0317 0 0 0.51585 0 0.51585-0.25793 0.25793-0.25793-0.25793-1.0317-0.51585-1.2896-0.25793-0.25793-0.51585-0.77378-1.0317-1.0317 1.0317-2.5793 2.3213-4.9006 3.353-7.222 0.77378-1.2896 1.8055-2.5793 2.5793-3.8689 1.2896 0 2.5793 0.25793 3.8689 0.25793v-1.5476zm-51.07 13.154s-0.25793 0-0.51586-0.25793c-0.25793 0-0.25793-0.25793-0.25793-0.51586 0 0 0.25793-0.25793 0.25793-0.51585 0.51586-0.77378 1.0317-1.5476 1.5476-2.5793 0.25793 0.25793 0.51585 0.25793 0.77378 0.25793-0.25793 0.51585-0.51585 1.0317-0.51585 1.2896-0.25793 0.77378-0.51585 1.0317-0.77378 1.8055l-0.51585 0.51585zm4.1268 1.2896h-2.8372c-0.25793 0-0.51585 0-0.51585-0.77378 0.77378-1.5476 1.0317-2.5793 1.5476-3.8689h1.8055zm3.0951 6.7061c-0.25793 0-0.77378-0.25793-0.77378-0.77378 0-0.51586 0.51586-0.77378 0.77378-0.77378 0.51585 0 0.77378 0.25793 0.77378 0.77378s-0.25793 0.77378-0.77378 0.77378zm1.8055-6.7061h-3.0951v-4.6427h3.0951zm8.5116 0h-6.4482v-4.6427h6.4482z" fill="#181818"/>
 <path d="m68.406 38.764h-2.418l-1.9716-5.2174h-3.2178v5.2174h-2.2878v-12.695h5.5057q2.2971 0 3.376 1.0416 1.0788 1.0323 1.0788 2.6784 0 2.4459-2.2878 3.3667zm-7.6075-7.0495h2.8458q1.2369 0 1.8414-0.52081 0.60451-0.52081 0.60451-1.4322 0-0.83701-0.59521-1.3485-0.59521-0.52081-1.6647-0.52081h-3.0318zm-5.9614-0.65101 1.9065 0.33481q-0.40921 2.7156-2.2599 4.7989 0.65101 0.70681 0.95792 0.86491 0.3162 0.1488 0.74401 0.1488 0.1953 0 0.55801-0.0465v1.7763l-0.88351 0.0186q-0.86491 0-1.4229-0.2511-0.54871-0.2511-1.4229-1.1067-1.9065 1.3578-4.1479 1.3578-2.1297 0-3.469-1.1439-1.3299-1.1532-1.3299-2.8365 0-1.0695 0.62311-2.0367 0.62311-0.96722 2.6784-1.8786-1.1067-1.302-1.1067-2.4087 0-1.2369 0.93002-2.0088t2.3808-0.77191q1.488 0 2.4366 0.74401 0.94862 0.74401 0.94862 2.0274 0 0.90212-0.64171 1.7391-0.64171 0.83701-1.8321 1.3206l2.7528 3.1434q1.302-1.674 1.5996-3.7852zm-5.3941-0.74401q1.6182-0.67891 1.6182-1.674 0-0.53941-0.39061-0.84631-0.39061-0.3069-0.92072-0.3069-0.53941 0-0.94862 0.3162-0.39991 0.3069-0.39991 0.80911 0 0.81841 1.0416 1.7019zm-0.96722 2.139q-1.8972 0.85561-1.8972 2.3808 0 1.023 0.73471 1.6461 0.74401 0.61381 1.8693 0.61381 1.3857 0 2.6133-0.90211zm-15.829 3.2458 2.2227-0.47431q0.39991 1.8879 3.069 1.8879 1.2183 0 1.8693-0.48361 0.66031-0.48361 0.66031-1.1997 0-0.52081-0.2976-0.95792-0.2976-0.44641-1.2741-0.69751l-2.4273-0.63241q-1.2462-0.3255-1.8414-0.73471-0.59521-0.41851-0.95792-1.1718-0.3534-0.75331-0.3534-1.6089 0-1.7019 1.2648-2.7249 1.2648-1.0323 3.2365-1.0323 1.6368 0 2.9202 0.71611 1.2927 0.71611 1.6461 2.0274l-2.1762 0.53941q-0.50221-1.4415-2.3436-1.4415-1.0695 0-1.6368 0.44641-0.55801 0.44641-0.55801 1.1346 0 1.0881 1.767 1.5252l2.1576 0.53941q1.9623 0.49291 2.6319 1.4601 0.66961 0.95792 0.66961 2.1204 0 1.8693-1.4136 2.9481-1.4043 1.0695-3.6457 1.0695-1.8879 0-3.3109-0.79051-1.4136-0.79051-1.8786-2.4645zm-1.2834-9.635v8.1562q0 1.6554-0.372 2.5482-0.37201 0.89281-1.4415 1.5438-1.0602 0.64171-2.5947 0.64171-1.5531 0-2.5575-0.55801-0.99512-0.55801-1.4322-1.5252-0.43711-0.97652-0.43711-2.4831v-8.3236h2.3343v8.1562q0 1.674 0.69751 2.2041 0.70681 0.52081 1.6368 0.52081 1.0695 0 1.7112-0.55801 0.64171-0.56731 0.64171-2.1669v-8.1562z" fill="#181818" stroke-width=".79362"/>
</svg>
