<?xml version="1.0" encoding="UTF-8"?>
<svg id="svg794" xmlns="http://www.w3.org/2000/svg" viewBox="0 0 90 85.5">
  <defs>
    <style>
      .cls-1 {
        fill: #181818;
      }

      .cls-1, .cls-2 {
        stroke-width: 0px;
      }

      .cls-3 {
        fill: none;
        stroke: #181818;
        stroke-miterlimit: 37.8;
        stroke-width: 4px;
      }

      .cls-2 {
        fill: #fff;
      }
    </style>
  </defs>
  <path id="path967" class="cls-2" d="M45,0L0,32.75l17.25,52.75h55.5l17.25-52.75L45,0Z"/>
  <path id="path956" class="cls-3" d="M45,6.73L6.75,34.23l14.75,45h47l14.75-45L45,6.73Z"/>
  <path id="path2235" class="cls-1" d="M33.24,25.75c-1.58,0-3.15.3-4.73.9-1.57.6-2.75,1.2-3.56,1.8v9.62h.54c.99-1.14,2.05-2.08,3.2-2.82,1.16-.74,2.26-1.1,3.3-1.1,1.4,0,2.46.54,3.2,1.63.75,1.07,1.12,2.59,1.12,4.57,0,1.65-.29,3.31-.87,5-.58,1.69-1.55,3.66-2.93,5.93-.92,1.53-2.14,3.35-3.68,5.47-1.52,2.11-3.04,4.11-4.56,5.99v7.15h19.89v-8.29h-11.38c.44-.54,1.19-1.49,2.23-2.85,1.04-1.38,2.08-2.88,3.11-4.51,1.64-2.62,2.86-5.16,3.66-7.62.81-2.46,1.21-5.06,1.21-7.79,0-4.17-.83-7.39-2.5-9.65-1.67-2.29-4.09-3.43-7.26-3.43h0ZM54.77,25.75c-1.58,0-3.15.3-4.73.9-1.57.6-2.75,1.2-3.56,1.8v9.62h.54c.99-1.14,2.05-2.08,3.2-2.82,1.16-.74,2.26-1.1,3.3-1.1,1.4,0,2.46.54,3.2,1.63.75,1.07,1.12,2.59,1.12,4.57,0,1.65-.29,3.31-.87,5-.58,1.69-1.55,3.66-2.93,5.93-.92,1.53-2.14,3.35-3.68,5.47-1.52,2.11-3.04,4.11-4.56,5.99v7.15h19.89v-8.29h-11.38c.44-.54,1.19-1.49,2.23-2.85,1.04-1.38,2.08-2.88,3.11-4.51,1.64-2.62,2.86-5.16,3.66-7.62.81-2.46,1.21-5.06,1.21-7.79,0-4.17-.83-7.39-2.5-9.65-1.67-2.29-4.09-3.43-7.26-3.43h0Z"/>
</svg>