<?xml version="1.0" encoding="UTF-8"?>
<svg id="svg794" xmlns="http://www.w3.org/2000/svg" viewBox="0 0 90 85.5">
  <defs>
    <style>
      .cls-1 {
        fill: none;
        stroke: #181818;
        stroke-miterlimit: 37.8;
        stroke-width: 4px;
      }

      .cls-2 {
        fill: #181818;
        fill-rule: evenodd;
      }

      .cls-2, .cls-3 {
        stroke-width: 0px;
      }

      .cls-3 {
        fill: #fff;
      }
    </style>
  </defs>
  <path id="path967" class="cls-3" d="M45,0L0,32.75l17.25,52.75h55.5l17.25-52.75L45,0Z"/>
  <path id="path956" class="cls-1" d="M45,6.73L6.75,34.23l14.75,45h47l14.75-45L45,6.73Z"/>
  <path id="path3680" class="cls-2" d="M32.9,25.75c-1.52,0-3.03.3-4.55.9-1.51.6-2.65,1.2-3.42,1.8v9.62h.52c.95-1.14,1.98-2.08,3.08-2.82,1.11-.74,2.17-1.1,3.17-1.1,1.34,0,2.37.54,3.08,1.63.72,1.07,1.08,2.59,1.08,4.57,0,1.65-.28,3.31-.83,5-.56,1.69-1.49,3.66-2.81,5.93-.88,1.53-2.06,3.35-3.54,5.47-1.46,2.11-2.92,4.11-4.38,5.99v7.15h19.13v-8.29h-10.95c.43-.54,1.14-1.49,2.14-2.85,1-1.38,2-2.88,2.99-4.51,1.58-2.62,2.75-5.16,3.52-7.62.77-2.46,1.16-5.06,1.16-7.79,0-4.17-.8-7.39-2.41-9.65-1.6-2.29-3.93-3.43-6.99-3.43h0ZM55.27,26.48c-.04,1.16-.21,2.13-.49,2.91s-.71,1.4-1.28,1.89c-.48.41-1.08.7-1.8.87-.72.16-1.47.23-2.26.23v7.07h5.14v22.88h-5.14v7.56h16.27v-7.56h-5.02V26.48h-5.42Z"/>
</svg>