<?xml version="1.0" encoding="UTF-8" standalone="no"?>
<!-- Created with Inkscape (http://www.inkscape.org/) -->

<svg
   width="91"
   height="91"
   viewBox="0 0 24.077083 24.077083"
   version="1.1"
   id="svg794"
   inkscape:version="1.2.2 (732a01da63, 2022-12-09)"
   sodipodi:docname="E23.svg"
   xmlns:inkscape="http://www.inkscape.org/namespaces/inkscape"
   xmlns:sodipodi="http://sodipodi.sourceforge.net/DTD/sodipodi-0.dtd"
   xmlns="http://www.w3.org/2000/svg"
   xmlns:svg="http://www.w3.org/2000/svg">
  <sodipodi:namedview
     id="namedview796"
     pagecolor="#ffffff"
     bordercolor="#000000"
     borderopacity="0.25"
     inkscape:showpageshadow="2"
     inkscape:pageopacity="0.0"
     inkscape:pagecheckerboard="true"
     inkscape:deskcolor="#d1d1d1"
     inkscape:document-units="px"
     showgrid="false"
     showguides="false"
     inkscape:zoom="8.8571429"
     inkscape:cx="45.443548"
     inkscape:cy="45.5"
     inkscape:window-width="1920"
     inkscape:window-height="1009"
     inkscape:window-x="1912"
     inkscape:window-y="52"
     inkscape:window-maximized="1"
     inkscape:current-layer="svg794">
    <sodipodi:guide
       position="0.13154672,24.129702"
       orientation="1,0"
       id="guide915"
       inkscape:locked="false" />
    <sodipodi:guide
       position="-0.06723499,23.945536"
       orientation="0,-1"
       id="guide917"
       inkscape:locked="false" />
    <sodipodi:guide
       position="12.039575,24.119458"
       orientation="1,0"
       id="guide919"
       inkscape:locked="false" />
    <sodipodi:guide
       position="12.061279,12.037508"
       orientation="0,-1"
       id="guide921"
       inkscape:locked="false" />
    <sodipodi:guide
       position="23.945825,-0.038240559"
       orientation="1,0"
       id="guide923"
       inkscape:locked="false" />
    <sodipodi:guide
       position="24.112223,0.13125814"
       orientation="0,-1"
       id="guide925"
       inkscape:locked="false" />
  </sodipodi:namedview>
  <defs
     id="defs791">
    <pattern
       id="EMFhbasepattern"
       patternUnits="userSpaceOnUse"
       width="6"
       height="6"
       x="0"
       y="0" />
    <pattern
       id="EMFhbasepattern-4"
       patternUnits="userSpaceOnUse"
       width="6"
       height="6"
       x="0"
       y="0" />
  </defs>
  <path
     style="fill:#ffffff;fill-opacity:1;fill-rule:nonzero;stroke:none;stroke-width:0.198437"
     d="M 12.038541,0.72760418 0.13229185,9.3927081 4.6963541,23.349479 H 19.380729 L 23.944791,9.3927081 Z"
     id="path967" />
  <path
     style="fill:none;stroke:#181818;stroke-width:1.05833px;stroke-linecap:butt;stroke-linejoin:miter;stroke-miterlimit:10;stroke-dasharray:none;stroke-opacity:1"
     d="M 12.038541,2.5086798 1.918229,9.7847213 5.8208329,21.69097 H 18.256249 L 22.158854,9.7847213 Z"
     id="path956" />
  <path
     d="m 15.10529,7.5406982 c -0.442479,0 -0.878969,0.077989 -1.309248,0.2336059 -0.430279,0.1505953 -0.770352,0.3087141 -1.020585,0.4743627 v 2.4320952 h 0.169216 c 0.314304,-0.306214 0.639502,-0.539867 0.975163,-0.7004992 0.335678,-0.165649 0.646637,-0.248227 0.933485,-0.248227 0.11596,0 0.25509,0.01498 0.416821,0.0451 0.161731,0.03012 0.30185,0.09037 0.420867,0.180731 0.106804,0.08032 0.195462,0.1907172 0.265649,0.3312822 0.07019,0.135535 0.105139,0.316279 0.105139,0.542176 0,0.306214 -0.03334,0.539566 -0.100472,0.700198 -0.06714,0.155615 -0.168086,0.281002 -0.302344,0.376385 -0.128166,0.09036 -0.283805,0.14816 -0.466893,0.173261 -0.183088,0.0251 -0.393426,0.03764 -0.631444,0.03764 h -0.389141 v 2.002884 h 0.375445 c 0.180046,0 0.375158,0.0052 0.585719,0.01524 0.210561,0.005 0.390782,0.04753 0.540313,0.127846 0.149527,0.0753 0.269902,0.203442 0.361446,0.384157 0.09155,0.175698 0.137488,0.426472 0.137488,0.752769 0,0.33633 -0.03365,0.595068 -0.100783,0.775783 -0.06714,0.175698 -0.157091,0.326169 -0.269997,0.451652 -0.143424,0.160632 -0.319114,0.266143 -0.526617,0.316343 -0.207503,0.04518 -0.399717,0.06781 -0.576705,0.06781 -0.302105,0 -0.636046,-0.09542 -1.002238,-0.286178 -0.363134,-0.190749 -0.676036,-0.416758 -0.938469,-0.677805 h -0.178549 v 2.462355 c 0.253275,0.180715 0.581387,0.34372 0.984194,0.489302 0.405864,0.145577 0.890897,0.218364 1.45545,0.218364 0.49435,0 0.914023,-0.08288 1.258857,-0.248544 0.347877,-0.170682 0.650093,-0.414114 0.906426,-0.730361 0.262433,-0.326297 0.455952,-0.717748 0.581053,-1.17456 0.128166,-0.456812 0.192548,-0.948582 0.192548,-1.475661 0,-0.466846 -0.04433,-0.840873 -0.132823,-1.121987 -0.0885,-0.281114 -0.207567,-0.527302 -0.357098,-0.738149 -0.143424,-0.200798 -0.301978,-0.353706 -0.475924,-0.459122 -0.173946,-0.105417 -0.338958,-0.175762 -0.494589,-0.210895 v -0.105449 c 0.384491,-0.135536 0.694479,-0.446874 0.929439,-0.933803 0.234976,-0.491945 0.352432,-1.049173 0.352432,-1.671618 0,-0.4718622 -0.06115,-0.8832052 -0.183216,-1.2346012 -0.122063,-0.351398 -0.308125,-0.65019 -0.558358,-0.89617 C 16.826387,8.0125988 16.559431,7.8492753 16.235969,7.7288093 15.912508,7.6033121 15.535534,7.5406249 15.10527,7.5406249 Z m -6.577694,0.015241 c -0.424163,0 -0.848374,0.077679 -1.272538,0.2332874 C 6.833937,7.9448422 6.514903,8.1005048 6.298242,8.2561208 v 2.4921362 h 0.146509 c 0.26549,-0.296164 0.552497,-0.539612 0.860701,-0.730361 0.311263,-0.1907482 0.607331,-0.2858602 0.888079,-0.2858602 0.375349,0 0.662037,0.140374 0.860383,0.4214882 0.201403,0.276097 0.302041,0.670303 0.302041,1.182332 0,0.426696 -0.07766,0.858217 -0.233288,1.294946 C 8.967038,13.067531 8.70462,13.579496 8.33537,14.166808 8.088195,14.563371 7.758474,15.035281 7.34651,15.582443 6.937604,16.129604 6.528921,16.646761 6.119999,17.13369 v 1.85238 h 5.350896 V 16.84001 H 8.408439 c 0.119012,-0.140555 0.318971,-0.386434 0.599719,-0.737831 0.280747,-0.356413 0.559982,-0.745427 0.8376876,-1.16709 0.4424784,-0.677677 0.7705744,-1.335526 0.9841934,-1.973101 0.21666,-0.637527 0.324752,-1.310044 0.324752,-2.017854 0,-1.0792732 -0.224242,-1.9125812 -0.67282,-2.4999402 C 10.033393,7.851849 9.382026,7.5558121 8.527663,7.5558121 Z"
     fill-rule="evenodd"
     stroke-width="0"
     id="path2905"
     style="fill:#181818;fill-opacity:1" />
</svg>
