<?xml version="1.0" encoding="UTF-8" standalone="no"?>
<svg
   width="92.300133"
   height="90.700005"
   version="1.1"
   viewBox="0 0 24.420992 23.997626"
   id="svg1043"
   sodipodi:docname="USR_WideAreaSearch_OtherIncidentSupport_CasualtyCollectionPoint.svg"
   inkscape:export-filename="C:\Users\15402\OneDrive\Desktop\To Upload\USR_WideAreaSearch_OtherIncidentSupport_CasualtyCollectionPoint.png"
   inkscape:export-xdpi="91.025352"
   inkscape:export-ydpi="91.025352"
   inkscape:version="1.1.2 (b8e25be833, 2022-02-05)"
   xmlns:inkscape="http://www.inkscape.org/namespaces/inkscape"
   xmlns:sodipodi="http://sodipodi.sourceforge.net/DTD/sodipodi-0.dtd"
   xmlns="http://www.w3.org/2000/svg"
   xmlns:svg="http://www.w3.org/2000/svg"
   xmlns:rdf="http://www.w3.org/1999/02/22-rdf-syntax-ns#"
   xmlns:cc="http://creativecommons.org/ns#"
   xmlns:dc="http://purl.org/dc/elements/1.1/">
  <defs
     id="defs1047" />
  <sodipodi:namedview
     id="namedview1045"
     pagecolor="#ffffff"
     bordercolor="#666666"
     borderopacity="1.0"
     inkscape:pageshadow="2"
     inkscape:pageopacity="0.0"
     inkscape:pagecheckerboard="true"
     showgrid="false"
     fit-margin-top="0.5"
     fit-margin-left="0.65"
     fit-margin-right="0.65"
     fit-margin-bottom="0.5"
     inkscape:zoom="8.4615385"
     inkscape:cx="46.090909"
     inkscape:cy="46.681818"
     inkscape:window-width="1920"
     inkscape:window-height="974"
     inkscape:window-x="-11"
     inkscape:window-y="-11"
     inkscape:window-maximized="1"
     inkscape:current-layer="svg1043" />
  <title
     id="title1031">USAR_Support_CCP</title>
  <metadata
     id="metadata1033">
    <rdf:RDF>
      <cc:Work
         rdf:about="">
        <dc:format>image/svg+xml</dc:format>
        <dc:type
           rdf:resource="http://purl.org/dc/dcmitype/StillImage" />
        <dc:title>USAR_Support_CCP</dc:title>
      </cc:Work>
    </rdf:RDF>
  </metadata>
  <ellipse
     cx="12.210496"
     cy="11.998813"
     rx="11.906209"
     ry="11.736104"
     fill="#ffffff"
     fill-rule="evenodd"
     id="ellipse1035"
     style="stroke-width:1.00792" />
  <ellipse
     cx="12.210496"
     cy="11.998813"
     rx="10.102267"
     ry="10.105784"
     fill="none"
     stroke="#000000"
     stroke-linecap="square"
     stroke-linejoin="bevel"
     stroke-width="0.875531"
     id="ellipse1037"
     style="stroke-width:1.21961;stroke-miterlimit:4;stroke-dasharray:none" />
  <path
     d="m 6.8005,6.4721756 c -0.4304802,0 -0.8275849,0.1295132 -1.1922667,0.388532 C 5.2461293,7.1197572 4.9418435,7.4875091 4.6962096,7.9624733 4.4404517,8.4565813 4.2458469,9.048569 4.1116382,9.739363 3.977421,10.43018 3.9101337,11.200382 3.9101337,12.049497 c 0,0.911487 0.069567,1.714518 0.2088552,2.410098 0.1417975,0.695611 0.3403583,1.276298 0.5961163,1.74169 0.255758,0.465346 0.5606563,0.815228 0.9151715,1.050356 0.3570505,0.235073 0.7456389,0.353293 1.165978,0.353293 0.2836121,0 0.5064709,-0.02632 0.6685422,-0.07897 0.1620884,-0.05282 0.3357047,-0.129691 0.5205512,-0.230442 0.1417805,-0.07669 0.2780651,-0.16777 0.4072117,-0.273284 0.1292062,-0.105476 0.2643507,-0.219072 0.4061653,-0.339006 V 14.121678 H 8.6465056 c -0.06847,0.115125 -0.1560904,0.252095 -0.2623769,0.410416 -0.1063801,0.158298 -0.2212168,0.306538 -0.3452928,0.445654 -0.1468086,0.172687 -0.3080462,0.309681 -0.482777,0.410416 -0.1721445,0.100736 -0.3464329,0.151452 -0.5236905,0.151452 -0.184906,1.8e-5 -0.372628,-0.05529 -0.562545,-0.16567 C 6.2798809,15.258821 6.1079321,15.069306 5.9534666,14.805463 5.8014343,14.546413 5.6748399,14.191792 5.5735475,13.740827 5.4747052,13.289869 5.4255818,12.727909 5.4255818,12.056336 c 0,-0.642826 0.045261,-1.189765 0.1363612,-1.640722 C 5.6555615,9.9646796 5.7777659,9.6025473 5.9271778,9.3291322 6.0842382,9.0460912 6.2544684,8.8453449 6.4393404,8.7254112 6.6242549,8.6006375 6.819838,8.5378262 7.0249582,8.5378262 c 0.1849145,0 0.3574418,0.052475 0.5195132,0.1581207 0.1620884,0.1054755 0.3130487,0.2350042 0.4523365,0.3885088 0.1367525,0.1535587 0.2588718,0.310205 0.3652178,0.4685033 0.1088984,0.1582982 0.1988161,0.2943419 0.2697276,0.4094665 H 8.7986741 V 7.364673 C 8.6948038,7.2686766 8.5727185,7.16554 8.4334392,7.0552013 8.2966867,6.9400767 8.1434208,6.8368706 7.9737521,6.7457142 7.8116637,6.6641065 7.6351463,6.5995274 7.442694,6.5514598 7.2527514,6.4986371 7.0384429,6.4724843 6.8003979,6.4724843 Z m 5.629534,0 c -0.43048,0 -0.828631,0.1295132 -1.193288,0.388532 -0.362104,0.2590496 -0.665351,0.6268015 -0.911002,1.1017657 -0.255758,0.494108 -0.4514095,1.0860957 -0.5856182,1.7768897 -0.1342342,0.690817 -0.200458,1.461019 -0.200458,2.310134 0,0.911487 0.069627,1.714518 0.2088551,2.410098 0.1417805,0.695611 0.3403581,1.276298 0.5961251,1.74169 0.255758,0.465346 0.560648,0.815228 0.915171,1.050356 0.357059,0.235073 0.745639,0.353293 1.165978,0.353293 0.283612,0 0.506471,-0.02632 0.668542,-0.07897 0.162089,-0.05282 0.335697,-0.129691 0.520552,-0.230442 0.14178,-0.07669 0.277018,-0.16777 0.406165,-0.273284 0.129206,-0.105476 0.264351,-0.219072 0.406148,-0.339006 v -2.561549 h -0.151062 c -0.06847,0.115125 -0.156091,0.252095 -0.262377,0.410416 -0.10638,0.158298 -0.221217,0.306538 -0.345293,0.445654 -0.146809,0.172687 -0.308046,0.309681 -0.482777,0.410416 -0.172144,0.100736 -0.346433,0.151452 -0.52369,0.151452 -0.184906,1.8e-5 -0.372628,-0.05529 -0.562546,-0.16567 -0.189942,-0.115125 -0.361891,-0.30464 -0.516356,-0.568483 -0.151837,-0.25905 -0.278627,-0.613671 -0.379919,-1.064636 -0.09884,-0.450958 -0.147966,-1.012918 -0.147966,-1.684491 0,-0.642826 0.04526,-1.189765 0.136361,-1.640722 0.09362,-0.4509344 0.214777,-0.8130667 0.364171,-1.0864818 0.157061,-0.283041 0.328355,-0.4837873 0.513226,-0.603721 0.184906,-0.1247737 0.379452,-0.187585 0.584572,-0.187585 0.184914,0 0.358488,0.052475 0.520559,0.1581207 0.162089,0.1054755 0.313049,0.2350042 0.452337,0.3885088 0.136753,0.1535587 0.257808,0.310205 0.364171,0.4685033 0.108899,0.1582982 0.198816,0.2943419 0.269728,0.4094665 h 0.166921 V 7.364673 C 14.323393,7.2686766 14.202372,7.16554 14.063092,7.0552013 13.92634,6.9400767 13.773074,6.8368706 13.603405,6.7457142 13.441317,6.6641065 13.263761,6.5995274 13.071309,6.5514598 12.881367,6.4986371 12.668105,6.4724843 12.43006,6.4724843 Z m 3.068721,0.2085427 V 17.396554 h 1.458813 v -3.490945 h 0.907855 c 0.412758,0 0.756699,-0.10793 1.032747,-0.323775 0.278542,-0.215876 0.531322,-0.534843 0.756699,-0.95703 0.164598,-0.311819 0.290231,-0.695526 0.378873,-1.151246 0.08859,-0.460537 0.133264,-0.930554 0.133264,-1.410304 0,-0.6188506 -0.06113,-1.1489301 -0.182592,-1.5902385 C 19.86546,8.0316608 19.692814,7.6695208 19.464927,7.3865338 19.274984,7.1514755 19.055052,6.9760329 18.806874,6.8609083 18.561249,6.7410441 18.258639,6.680919 17.89902,6.680919 Z m 1.458813,2.0006701 h 0.250823 c 0.240555,0 0.432897,0.00702 0.57723,0.021938 0.14429,0.00878 0.292009,0.071604 0.443939,0.1866355 0.113926,0.086347 0.214062,0.2402147 0.300168,0.4608844 0.08607,0.215876 0.129011,0.4748021 0.129011,0.7770177 0,0.307032 -0.02108,0.568784 -0.06403,0.78466 -0.04042,0.21109 -0.107733,0.393079 -0.201505,0.546583 -0.108898,0.172687 -0.244094,0.288097 -0.406165,0.345675 -0.15957,0.05756 -0.363686,0.0867 -0.611873,0.0867 h -0.417693 z"
     stroke="#ffffff"
     stroke-width="0.374747"
     id="path1039" />
</svg>
