<?xml version="1.0" encoding="UTF-8"?>
<svg id="svg5" xmlns="http://www.w3.org/2000/svg" viewBox="0 0 90 90">
  <defs>
    <style>
      .cls-1 {
        fill: none;
        stroke: #545558;
        stroke-miterlimit: 37.8;
        stroke-width: 4.56px;
      }

      .cls-2 {
        fill: #707175;
      }

      .cls-2, .cls-3 {
        stroke-width: 0px;
      }

      .cls-3 {
        fill: #fff;
      }
    </style>
  </defs>
  <path id="path342-4" class="cls-3" d="M90,45c0,24.88-20.12,45-45,45S0,69.88,0,45,20.12,0,45,0s45,20.12,45,45Z"/>
  <path id="path340" class="cls-2" d="M83.78,45c0,21.41-17.31,38.72-38.72,38.72S6.33,66.41,6.33,45,23.65,6.28,45.06,6.28s38.72,17.31,38.72,38.72Z"/>
  <path id="path342" class="cls-1" d="M83.78,45c0,21.41-17.31,38.72-38.72,38.72S6.33,66.41,6.33,45,23.65,6.28,45.06,6.28s38.72,17.31,38.72,38.72Z"/>
  <path id="path344" class="cls-3" d="M73.53,31.56v26.65c0,2.28-1.82,3.87-3.87,3.87H20.46c-2.05,0-3.87-1.59-3.87-3.87v-26.65c0-2.05,1.82-3.87,3.87-3.87h16.17v-3.87c0-2.28,1.82-4.1,4.1-4.1h8.66c2.28,0,4.1,1.82,4.1,4.1v3.87h16.17c2.05,0,3.87,1.82,3.87,3.87Z"/>
  <path id="path346" class="cls-2" d="M58.04,45c0,7.29-5.69,12.98-12.98,12.98s-12.98-5.69-12.98-12.98,5.69-12.98,12.98-12.98,12.98,5.92,12.98,12.98Z"/>
</svg>