<?xml version="1.0" encoding="UTF-8" standalone="no"?>
<svg
   width="90.826"
   height="91.368"
   version="1.1"
   viewBox="0 0 90.826 91.368"
   id="svg2153"
   sodipodi:docname="USR_WideAreaSearch_SearchHumanInteractions_ShelterinPlace.svg"
   inkscape:version="1.1.2 (b8e25be833, 2022-02-05)"
   inkscape:export-filename="C:\Users\15402\OneDrive\Desktop\To Upload\USR_WideAreaSearch_SearchHumanInteractions_Evacuated.png"
   inkscape:export-xdpi="268.46939"
   inkscape:export-ydpi="268.46939"
   xmlns:inkscape="http://www.inkscape.org/namespaces/inkscape"
   xmlns:sodipodi="http://sodipodi.sourceforge.net/DTD/sodipodi-0.dtd"
   xmlns="http://www.w3.org/2000/svg"
   xmlns:svg="http://www.w3.org/2000/svg"
   xmlns:rdf="http://www.w3.org/1999/02/22-rdf-syntax-ns#"
   xmlns:cc="http://creativecommons.org/ns#"
   xmlns:dc="http://purl.org/dc/elements/1.1/">
  <sodipodi:namedview
     id="namedview2155"
     pagecolor="#ffffff"
     bordercolor="#666666"
     borderopacity="1.0"
     inkscape:pageshadow="2"
     inkscape:pageopacity="0.0"
     inkscape:pagecheckerboard="true"
     showgrid="false"
     inkscape:zoom="8.4274585"
     inkscape:cx="45.446679"
     inkscape:cy="36.191219"
     inkscape:window-width="1920"
     inkscape:window-height="974"
     inkscape:window-x="-11"
     inkscape:window-y="-11"
     inkscape:window-maximized="1"
     inkscape:current-layer="svg2153"
     showguides="true"
     inkscape:guide-bbox="true">
    <sodipodi:guide
       position="45.684,75.348935"
       orientation="1,0"
       id="guide1323" />
    <sodipodi:guide
       position="7.7130569,45.271048"
       orientation="0,-1"
       id="guide1343" />
  </sodipodi:namedview>
  <defs
     id="defs2131">
    <style
       type="text/css"
       id="style2067">.str0 {stroke:#D9DADA;stroke-width:0.749401}
    .str1 {stroke:#231F20;stroke-width:0.749401}
    .fil0 {fill:none}
    .fil2 {fill:#231F20}
    .fil1 {fill:#ED1C24}</style>
    <style
       type="text/css"
       id="style2069">.str0 {stroke:#D9DADA;stroke-width:0.749401}
    .str1 {stroke:#231F20;stroke-width:0.749401}
    .fil0 {fill:none}
    .fil2 {fill:#231F20}
    .fil1 {fill:#ED1C24}</style>
    <style
       type="text/css"
       id="style2071">.str0 {stroke:#D9DADA;stroke-width:0.749401}
    .str1 {stroke:#231F20;stroke-width:0.749401}
    .fil0 {fill:none}
    .fil2 {fill:#231F20}
    .fil1 {fill:#ED1C24}</style>
    <style
       type="text/css"
       id="style2073">.str0 {stroke:#D9DADA;stroke-width:0.749401}
    .str1 {stroke:#231F20;stroke-width:0.749401}
    .fil0 {fill:none}
    .fil2 {fill:#231F20}
    .fil1 {fill:#ED1C24}</style>
    <style
       type="text/css"
       id="style2075">.str0 {stroke:#D9DADA;stroke-width:0.749401}
    .str1 {stroke:#231F20;stroke-width:0.749401}
    .fil0 {fill:none}
    .fil2 {fill:#231F20}
    .fil1 {fill:#ED1C24}</style>
    <style
       type="text/css"
       id="style2077">.str0 {stroke:#D9DADA;stroke-width:0.749401}
    .str1 {stroke:#231F20;stroke-width:0.749401}
    .fil0 {fill:none}
    .fil2 {fill:#231F20}
    .fil1 {fill:#ED1C24}</style>
    <style
       type="text/css"
       id="style2079">.str0 {stroke:#D9DADA;stroke-width:0.749401}
    .str1 {stroke:#231F20;stroke-width:0.749401}
    .fil0 {fill:none}
    .fil2 {fill:#231F20}
    .fil1 {fill:#ED1C24}</style>
    <style
       type="text/css"
       id="style2081">.str0 {stroke:#D9DADA;stroke-width:0.749401}
    .str1 {stroke:#231F20;stroke-width:0.749401}
    .fil0 {fill:none}
    .fil2 {fill:#231F20}
    .fil1 {fill:#ED1C24}</style>
    <style
       type="text/css"
       id="style2083">.str0 {stroke:#D9DADA;stroke-width:0.749401}
    .str1 {stroke:#231F20;stroke-width:0.749401}
    .fil0 {fill:none}
    .fil2 {fill:#231F20}
    .fil1 {fill:#ED1C24}</style>
    <style
       type="text/css"
       id="style2085">.str0 {stroke:#D9DADA;stroke-width:0.749401}
    .str1 {stroke:#231F20;stroke-width:0.749401}
    .fil0 {fill:none}
    .fil2 {fill:#231F20}
    .fil1 {fill:#ED1C24}</style>
    <style
       type="text/css"
       id="style2087">.str0 {stroke:#D9DADA;stroke-width:0.749401}
    .str1 {stroke:#231F20;stroke-width:0.749401}
    .fil0 {fill:none}
    .fil2 {fill:#231F20}
    .fil1 {fill:#ED1C24}</style>
    <style
       type="text/css"
       id="style2089">.str0 {stroke:#D9DADA;stroke-width:0.749401}
    .str1 {stroke:#231F20;stroke-width:0.749401}
    .fil0 {fill:none}
    .fil2 {fill:#231F20}
    .fil1 {fill:#ED1C24}</style>
    <style
       type="text/css"
       id="style2091">.str0 {stroke:#D9DADA;stroke-width:0.749401}
    .str1 {stroke:#231F20;stroke-width:0.749401}
    .fil0 {fill:none}
    .fil2 {fill:#231F20}
    .fil1 {fill:#ED1C24}</style>
    <style
       type="text/css"
       id="style2093">.str0 {stroke:#D9DADA;stroke-width:0.749401}
    .str1 {stroke:#231F20;stroke-width:0.749401}
    .fil0 {fill:none}
    .fil2 {fill:#231F20}
    .fil1 {fill:#ED1C24}</style>
    <style
       type="text/css"
       id="style2095">.str0 {stroke:#D9DADA;stroke-width:0.749401}
    .str1 {stroke:#231F20;stroke-width:0.749401}
    .fil0 {fill:none}
    .fil2 {fill:#231F20}
    .fil1 {fill:#ED1C24}</style>
    <style
       type="text/css"
       id="style2097">.str0 {stroke:#D9DADA;stroke-width:0.749401}
    .str1 {stroke:#231F20;stroke-width:0.749401}
    .fil0 {fill:none}
    .fil2 {fill:#231F20}
    .fil1 {fill:#ED1C24}</style>
    <style
       type="text/css"
       id="style2099">.str0 {stroke:#D9DADA;stroke-width:0.749401}
    .str1 {stroke:#231F20;stroke-width:0.749401}
    .fil0 {fill:none}
    .fil2 {fill:#231F20}
    .fil1 {fill:#ED1C24}</style>
    <style
       type="text/css"
       id="style2101">.str0 {stroke:#D9DADA;stroke-width:0.749401}
    .str1 {stroke:#231F20;stroke-width:0.749401}
    .fil0 {fill:none}
    .fil2 {fill:#231F20}
    .fil1 {fill:#ED1C24}</style>
    <style
       type="text/css"
       id="style2103">.str0 {stroke:#D9DADA;stroke-width:0.749401}
    .str1 {stroke:#231F20;stroke-width:0.749401}
    .fil0 {fill:none}
    .fil2 {fill:#231F20}
    .fil1 {fill:#ED1C24}</style>
    <style
       type="text/css"
       id="style2105">.str0 {stroke:#D9DADA;stroke-width:0.749401}
    .str1 {stroke:#231F20;stroke-width:0.749401}
    .fil0 {fill:none}
    .fil2 {fill:#231F20}
    .fil1 {fill:#ED1C24}</style>
    <style
       type="text/css"
       id="style2107">.str0 {stroke:#D9DADA;stroke-width:0.749401}
    .str1 {stroke:#231F20;stroke-width:0.749401}
    .fil0 {fill:none}
    .fil2 {fill:#231F20}
    .fil1 {fill:#ED1C24}</style>
    <style
       type="text/css"
       id="style2109">.str0 {stroke:#D9DADA;stroke-width:0.749401}
    .str1 {stroke:#231F20;stroke-width:0.749401}
    .fil0 {fill:none}
    .fil2 {fill:#231F20}
    .fil1 {fill:#ED1C24}</style>
    <style
       type="text/css"
       id="style2111">.str0 {stroke:#D9DADA;stroke-width:0.749401}
    .str1 {stroke:#231F20;stroke-width:0.749401}
    .fil0 {fill:none}
    .fil2 {fill:#231F20}
    .fil1 {fill:#ED1C24}</style>
    <style
       type="text/css"
       id="style2113">.str0 {stroke:#D9DADA;stroke-width:0.749401}
    .str1 {stroke:#231F20;stroke-width:0.749401}
    .fil0 {fill:none}
    .fil2 {fill:#231F20}
    .fil1 {fill:#ED1C24}</style>
    <style
       type="text/css"
       id="style2115">.str0 {stroke:#D9DADA;stroke-width:0.749401}
    .str1 {stroke:#231F20;stroke-width:0.749401}
    .fil0 {fill:none}
    .fil2 {fill:#231F20}
    .fil1 {fill:#ED1C24}</style>
    <style
       type="text/css"
       id="style2117">.str0 {stroke:#D9DADA;stroke-width:0.749401}
    .str1 {stroke:#231F20;stroke-width:0.749401}
    .fil0 {fill:none}
    .fil2 {fill:#231F20}
    .fil1 {fill:#ED1C24}</style>
    <style
       type="text/css"
       id="style2119">.str0 {stroke:#D9DADA;stroke-width:0.749401}
    .str1 {stroke:#231F20;stroke-width:0.749401}
    .fil0 {fill:none}
    .fil2 {fill:#231F20}
    .fil1 {fill:#ED1C24}</style>
    <style
       type="text/css"
       id="style2121">.str0 {stroke:#D9DADA;stroke-width:0.749401}
    .str1 {stroke:#231F20;stroke-width:0.749401}
    .fil0 {fill:none}
    .fil2 {fill:#231F20}
    .fil1 {fill:#ED1C24}</style>
    <style
       type="text/css"
       id="style2123">.str0 {stroke:#D9DADA;stroke-width:0.749401}
    .str1 {stroke:#231F20;stroke-width:0.749401}
    .fil0 {fill:none}
    .fil2 {fill:#231F20}
    .fil1 {fill:#ED1C24}</style>
    <style
       type="text/css"
       id="style2125">.str0 {stroke:#D9DADA;stroke-width:0.749401}
    .str1 {stroke:#231F20;stroke-width:0.749401}
    .fil0 {fill:none}
    .fil2 {fill:#231F20}
    .fil1 {fill:#ED1C24}</style>
    <style
       type="text/css"
       id="style2127">.str0 {stroke:#D9DADA;stroke-width:0.749401}
    .str1 {stroke:#231F20;stroke-width:0.749401}
    .fil0 {fill:none}
    .fil2 {fill:#231F20}
    .fil1 {fill:#ED1C24}</style>
    <style
       type="text/css"
       id="style2129">.str0 {stroke:#D9DADA;stroke-width:0.749401}
    .str1 {stroke:#231F20;stroke-width:0.749401}
    .fil0 {fill:none}
    .fil2 {fill:#231F20}
    .fil1 {fill:#ED1C24}</style>
  </defs>
  <metadata
     id="metadata2133">
    <rdf:RDF>
      <cc:Work
         rdf:about="">
        <dc:format>image/svg+xml</dc:format>
        <dc:type
           rdf:resource="http://purl.org/dc/dcmitype/StillImage" />
      </cc:Work>
    </rdf:RDF>
  </metadata>
  <g
     transform="matrix(0.9964,0,0,0.98949578,-18.311785,-931.99885)"
     id="g2137"
     style="fill:#ffffff"
     inkscape:export-filename="C:\Users\15402\OneDrive\Desktop\To Upload\USR_WideAreaSearch_SearchHumanInteractions_Assisted.png"
     inkscape:export-xdpi="96"
     inkscape:export-ydpi="96">
    <path
       d="m 19.223,988.52 45.004,-45.009 44.996,44.968 -44.997,44.882 z"
       fill="#fff8f5"
       stroke-width="0"
       id="path2135"
       style="fill:#ffffff" />
  </g>
  <g
     transform="matrix(.91592 0 0 .91592 -13.071 -12.641)"
     id="g2151">
    <g
       transform="translate(0,-924.36)"
       id="g2149">
      <path
         d="m22.692 988.49 41.395-41.502 41.369 41.439-41.367 41.421z"
         fill="none"
         stroke="#0f1600"
         stroke-linecap="round"
         stroke-width="4.1923"
         id="path2147" />
    </g>
  </g>
  <path
     d="m 52.007018,23.429602 c -4.4067,0.04478 -8.8122,0.06883 -13.215,0.02501 -1.2552,-0.01247 -2.3279,0.4009 -3.1932,1.3386 -5.0647,5.4872 -10.181,10.933 -15.275,16.401 -0.33685,0.36109 -0.55865,0.72528 -0.89797,1.1738 l -0.60361,0.79751 0.99296,0.20478 c 1.3847,0.28539 2.6174,0.32538 3.7465,-0.0066 1.1291,-0.33203 2.1157,-1.0368 3.005,-2.1028 3.443,-4.1266 7.2445,-8.0006 10.872,-12.053 0.73053,-0.81591 1.3095,-1.0537 2.4386,-1.024 3.8344,0.10078 7.6519,0.01219 11.441,0.11821 0.49841,0.01391 1.3316,0.38291 1.6636,0.7359 3.9833,4.2379 7.9929,8.443 11.733,12.846 0.89682,1.056 1.9435,1.5148 2.9677,1.6433 1.0243,0.12848 2.0141,-0.01046 3.0404,-0.02328 l 1.1532,-0.01335 -0.60361,-0.9573 c -0.31228,-0.4949 -0.43121,-0.81047 -0.74893,-1.1505 -5.2392,-5.6032 -10.504,-11.181 -15.709,-16.806 -0.78385,-0.847 -1.7545,-1.1593 -2.8094,-1.1488 z m -7.2992,6.8063 c -0.22299,0.08504 -0.44318,0.17495 -0.66882,0.25474 -1.5662,0.55348 -2.5253,1.9051 -2.2934,3.235 0.25718,1.4746 1.5566,2.5533 3.2994,2.7388 1.6327,0.17361 3.2717,-0.6203 3.9161,-1.8981 0.6618,-1.3122 0.19968,-2.8133 -1.1942,-3.6662 -0.46108,-0.28189 -1.0271,-0.44643 -1.5444,-0.66431 z m 0.97618,7.1726 c -1.5396,5.75e-4 -3.0792,0.01793 -4.6184,0.01501 -0.27496,-5.76e-4 -0.55831,0.05266 -0.82531,0.11487 -2.2076,0.51556 -3.524,2.0586 -3.5416,4.2256 -0.02493,2.9878 -0.0079,5.9757 -0.0017,8.9644 5.9e-4,0.2523 0.04038,0.50875 0.09687,0.75755 0.15007,0.66068 0.67098,0.992 1.4568,1.039 0.80949,0.04845 1.4253,-0.30994 1.6171,-0.95901 0.09174,-0.31039 0.11923,-0.63976 0.11923,-0.96071 0.0085,-2.7317 0.0036,-5.4631 0.0036,-8.2365 h 0.0017 c 0.92138,-0.21219 0.77128,0.28878 0.77128,0.66098 0.0036,7.6911 0.0036,15.382 0.0036,23.072 0,0.27795 -0.0036,0.55605 0.02234,0.83247 0.10076,1.0691 0.8621,1.6922 2.0809,1.7166 1.2454,0.02501 2.0919,-0.60474 2.23,-1.6716 0.03501,-0.2751 0.03914,-0.55496 0.03914,-0.83247 0.003,-4.3319 -5.89e-4,-8.6635 0.0017,-12.995 5.38e-4,-0.68238 0.0076,-0.68304 0.7452,-0.57607 v 13.674 c 0,0.25471 -0.01238,0.51125 0.01674,0.7642 0.11242,0.98381 1.0034,1.6407 2.2021,1.6383 1.2133,-0.0029 2.0611,-0.65218 2.1499,-1.6616 0.0244,-0.27664 0.01492,-0.5564 0.01492,-0.83414 v -23.777 c 0.78138,-0.20365 0.7806,0.14676 0.7806,0.53278 -0.003,2.7332 -0.01609,5.4666 0.0168,8.1998 0.01091,0.91588 0.68489,1.4589 1.6301,1.4435 0.90865,-0.01488 1.5732,-0.55268 1.5798,-1.4268 0.02358,-3.2892 0.06168,-6.5803 -0.02606,-9.868 -0.05117,-1.9268 -1.8407,-3.6756 -3.9552,-3.7695 -1.5352,-0.06807 -3.0731,-0.0839 -4.6128,-0.08325 z"
     color="#000000"
     color-rendering="auto"
     dominant-baseline="auto"
     fill-rule="evenodd"
     image-rendering="auto"
     shape-rendering="auto"
     solid-color="#000000"
     stop-color="#000000"
     stroke-width="0.90173"
     style="font-variant-ligatures:normal;font-variant-position:normal;font-variant-caps:normal;font-variant-numeric:normal;font-variant-alternates:normal;font-variant-east-asian:normal;font-feature-settings:normal;font-variation-settings:normal;text-indent:0;text-decoration-line:none;text-decoration-style:solid;text-decoration-color:#000000;text-transform:none;text-orientation:mixed;white-space:normal;shape-padding:0;shape-margin:0;inline-size:0;isolation:auto;mix-blend-mode:normal"
     id="path2182" />
</svg>
