<?xml version="1.0" encoding="UTF-8"?>
<svg id="svg2153" xmlns="http://www.w3.org/2000/svg" viewBox="0 0 90 90">
  <defs>
    <style>
      .cls-1 {
        fill: #000;
      }

      .cls-1, .cls-2, .cls-3 {
        stroke-width: 0px;
      }

      .cls-4 {
        fill: none;
        stroke: #0f1600;
        stroke-linecap: round;
        stroke-width: 3.87px;
      }

      .cls-2 {
        fill: #f0f;
      }

      .cls-3 {
        fill: #fff;
      }
    </style>
  </defs>
  <path id="path2135" class="cls-3" d="M0,45.08L45,0l45,45.04-45,44.96L0,45.08Z"/>
  <path id="path2147" class="cls-4" d="M6.73,45.07L45.01,6.75l38.26,38.26-38.26,38.24L6.73,45.07Z"/>
  <circle id="ellipse2557" class="cls-2" cx="45" cy="45" r="20"/>
  <path id="path2559" class="cls-1" d="M44.54,18.81v17.79c-4.04.3-7.22,3.68-7.43,7.87h-19.49v1.09h19.51c.31,4.1,3.46,7.35,7.42,7.65v19.6h1.05v-19.59c4-.24,7.21-3.51,7.53-7.66h18.49v-1.09h-18.48c-.21-4.24-3.46-7.63-7.54-7.88v-17.78h-1.05Z"/>
</svg>