<?xml version="1.0" encoding="UTF-8" standalone="no"?>
<svg
   width="90.862"
   height="91.137527"
   version="1.1"
   viewBox="0 0 24.040425 24.113388"
   id="svg1581"
   sodipodi:docname="USR_WideAreaSearch_SearchHumanInteractions_AnimalEvacuation_WB.svg"
   inkscape:version="1.1.2 (b8e25be833, 2022-02-05)"
   xmlns:inkscape="http://www.inkscape.org/namespaces/inkscape"
   xmlns:sodipodi="http://sodipodi.sourceforge.net/DTD/sodipodi-0.dtd"
   xmlns="http://www.w3.org/2000/svg"
   xmlns:svg="http://www.w3.org/2000/svg"
   xmlns:rdf="http://www.w3.org/1999/02/22-rdf-syntax-ns#"
   xmlns:cc="http://creativecommons.org/ns#"
   xmlns:dc="http://purl.org/dc/elements/1.1/">
  <defs
     id="defs1585" />
  <sodipodi:namedview
     id="namedview1583"
     pagecolor="#ffffff"
     bordercolor="#666666"
     borderopacity="1.0"
     inkscape:pageshadow="2"
     inkscape:pageopacity="0.0"
     inkscape:pagecheckerboard="true"
     showgrid="false"
     showguides="true"
     inkscape:guide-bbox="true"
     fit-margin-top="0.569"
     fit-margin-bottom="0.569"
     fit-margin-left="0.5"
     fit-margin-right="0.5"
     inkscape:zoom="8.4615385"
     inkscape:cx="45.381818"
     inkscape:cy="47.627273"
     inkscape:window-width="3840"
     inkscape:window-height="1514"
     inkscape:window-x="2869"
     inkscape:window-y="-11"
     inkscape:window-maximized="1"
     inkscape:current-layer="svg1581">
    <sodipodi:guide
       position="-0.76661181,10.516249"
       orientation="1,0"
       id="guide1792" />
    <sodipodi:guide
       position="0.23398819,10.422442"
       orientation="1,0"
       id="guide1794" />
  </sodipodi:namedview>
  <title
     id="title1571">USAR_Support_AnimalEvac</title>
  <metadata
     id="metadata1573">
    <rdf:RDF>
      <cc:Work
         rdf:about="">
        <dc:format>image/svg+xml</dc:format>
        <dc:type
           rdf:resource="http://purl.org/dc/dcmitype/StillImage" />
        <dc:title>USAR_Support_AnimalEvac</dc:title>
      </cc:Work>
    </rdf:RDF>
  </metadata>
  <g
     id="g1878"
     transform="matrix(0.93006679,0,0,0.93006679,0.82558039,0.92594225)">
    <ellipse
       cx="12.038691"
       cy="12.038844"
       rx="11.668293"
       ry="11.672274"
       fill="#a2d278"
       fill-rule="evenodd"
       id="ellipse1575"
       style="stroke-width:0.995079" />
    <path
       d="m 12.037696,3.5540074 c -0.659708,-2.74e-5 -1.255591,0.3187834 -1.683673,0.828403 -0.4280534,0.5095898 -0.6910926,1.2107123 -0.6910627,1.983988 -2.71e-5,0.7732459 0.2630093,1.4744082 0.6910627,1.9839881 0.428053,0.5095897 1.023936,0.8284329 1.683673,0.828403 0.659707,2.73e-5 1.25559,-0.3187834 1.683673,-0.828403 0.428053,-0.5096197 0.691092,-1.2107124 0.691062,-1.9839881 2.8e-5,-0.7732458 -0.263009,-1.4744082 -0.691062,-1.983988 C 13.293316,3.8728206 12.697433,3.5539775 12.037696,3.5540074 Z M 5.6029196,6.7871177 C 4.9432122,6.7870906 4.3473292,7.1059012 3.9192463,7.6155208 3.4911933,8.1251404 3.2281542,8.8262331 3.228184,9.5995088 c -2.74e-5,0.7732462 0.2630093,1.4744082 0.6910623,1.9839882 0.428053,0.50959 1.0239361,0.828433 1.6836733,0.828403 0.6597073,2.7e-5 1.2555903,-0.318784 1.6836732,-0.828403 C 7.7146459,11.073897 7.977685,10.372785 7.9776551,9.5995088 7.9776824,8.826263 7.7146459,8.1251006 7.2865928,7.6155208 6.8585398,7.105931 6.2626568,6.7870879 5.6029196,6.7871177 Z m 12.8693534,0.029512 c -0.659707,-2.73e-5 -1.25559,0.3187834 -1.683673,0.828403 -0.428053,0.5095898 -0.691092,1.2107124 -0.691062,1.9839881 -2.9e-5,0.7732462 0.262999,1.4744082 0.691062,1.9839882 0.428053,0.5096 1.023936,0.828433 1.683673,0.828403 0.659707,2.8e-5 1.25559,-0.318783 1.683673,-0.828403 0.428053,-0.50962 0.691093,-1.210712 0.691063,-1.9839882 2.6e-5,-0.7732458 -0.26301,-1.4744081 -0.691063,-1.983988 C 19.727893,7.1354431 19.13201,6.8165999 18.472273,6.8166297 Z m -6.437562,3.6101463 c -1.36704,0.06259 -2.4997377,0.918597 -3.4321265,2.031851 -0.932359,1.113194 -1.6683491,2.487896 -2.2411164,3.60726 -0.3039767,0.593952 -0.7196907,1.322758 -0.9160695,2.027771 -0.1963887,0.705014 -0.1701883,1.39729 0.4223015,1.886769 0.5808772,0.479897 1.1601623,0.720208 1.8942319,0.68337 0.7340497,-0.03684 1.6188936,-0.345232 2.834084,-0.946966 0.672703,-0.333113 1.010403,-0.462125 1.367238,-0.446751 0.356099,0.01531 0.751125,0.179035 1.519585,0.448293 0.915134,0.502634 1.7995,0.810213 2.604121,0.871649 0.806491,0.06158 1.53461,-0.125728 2.120314,-0.609585 0.592489,-0.489559 0.61868,-1.181755 0.422301,-1.886769 -0.196389,-0.705013 -0.612123,-1.433809 -0.916069,-2.027771 -0.572967,-1.119563 -1.327833,-2.496852 -2.269377,-3.611141 -0.941573,-1.114389 -2.073247,-1.970654 -3.403766,-2.027772 a 0.05362778,0.04923948 0 0 0 -0.0055,0 z"
       color="#000000"
       color-rendering="auto"
       dominant-baseline="auto"
       fill="#ffffff"
       fill-rule="evenodd"
       image-rendering="auto"
       shape-rendering="auto"
       solid-color="#000000"
       stop-color="#000000"
       stroke-width="0.27323"
       style="font-variant-ligatures:normal;font-variant-position:normal;font-variant-caps:normal;font-variant-numeric:normal;font-variant-alternates:normal;font-variant-east-asian:normal;font-feature-settings:normal;font-variation-settings:normal;text-indent:0;text-decoration-line:none;text-decoration-style:solid;text-decoration-color:#000000;text-transform:none;text-orientation:mixed;white-space:normal;shape-padding:0;shape-margin:0;inline-size:0;isolation:auto;mix-blend-mode:normal"
       id="path1577" />
    <ellipse
       cx="12.038691"
       cy="12.038844"
       rx="11.365789"
       ry="11.369769"
       fill="none"
       stroke="#86a868"
       stroke-linecap="square"
       stroke-linejoin="bevel"
       stroke-width="0.955912"
       id="ellipse1579" />
    <ellipse
       cx="12.036374"
       cy="11.96769"
       rx="12.265692"
       ry="12.285254"
       fill="none"
       stroke="#86a868"
       stroke-linecap="square"
       stroke-linejoin="bevel"
       stroke-width="1.03227"
       id="ellipse1579-5"
       style="stroke:#ffffff;stroke-opacity:1" />
  </g>
</svg>
