<?xml version="1.0" encoding="UTF-8"?>
<svg width="91" height="91" version="1.1" viewBox="0 0 91 91" xmlns="http://www.w3.org/2000/svg" xmlns:cc="http://creativecommons.org/ns#" xmlns:dc="http://purl.org/dc/elements/1.1/" xmlns:rdf="http://www.w3.org/1999/02/22-rdf-syntax-ns#">
 <title>USAR_Hazard_HAZMAT</title>
 <defs>
  <style type="text/css">.str0 {stroke:#D9DADA;stroke-width:0.749401}
    .str1 {stroke:#231F20;stroke-width:0.749401}
    .fil0 {fill:none}
    .fil2 {fill:#231F20}
    .fil1 {fill:#ED1C24}</style>
  <style type="text/css">.str0 {stroke:#D9DADA;stroke-width:0.749401}
    .str1 {stroke:#231F20;stroke-width:0.749401}
    .fil0 {fill:none}
    .fil2 {fill:#231F20}
    .fil1 {fill:#ED1C24}</style>
  <style type="text/css">.str0 {stroke:#D9DADA;stroke-width:0.749401}
    .str1 {stroke:#231F20;stroke-width:0.749401}
    .fil0 {fill:none}
    .fil2 {fill:#231F20}
    .fil1 {fill:#ED1C24}</style>
  <style type="text/css">.str0 {stroke:#D9DADA;stroke-width:0.749401}
    .str1 {stroke:#231F20;stroke-width:0.749401}
    .fil0 {fill:none}
    .fil2 {fill:#231F20}
    .fil1 {fill:#ED1C24}</style>
  <style type="text/css">.str0 {stroke:#D9DADA;stroke-width:0.749401}
    .str1 {stroke:#231F20;stroke-width:0.749401}
    .fil0 {fill:none}
    .fil2 {fill:#231F20}
    .fil1 {fill:#ED1C24}</style>
  <style type="text/css">.str0 {stroke:#D9DADA;stroke-width:0.749401}
    .str1 {stroke:#231F20;stroke-width:0.749401}
    .fil0 {fill:none}
    .fil2 {fill:#231F20}
    .fil1 {fill:#ED1C24}</style>
  <style type="text/css">.str0 {stroke:#D9DADA;stroke-width:0.749401}
    .str1 {stroke:#231F20;stroke-width:0.749401}
    .fil0 {fill:none}
    .fil2 {fill:#231F20}
    .fil1 {fill:#ED1C24}</style>
  <style type="text/css">.str0 {stroke:#D9DADA;stroke-width:0.749401}
    .str1 {stroke:#231F20;stroke-width:0.749401}
    .fil0 {fill:none}
    .fil2 {fill:#231F20}
    .fil1 {fill:#ED1C24}</style>
  <style type="text/css">.str0 {stroke:#D9DADA;stroke-width:0.749401}
    .str1 {stroke:#231F20;stroke-width:0.749401}
    .fil0 {fill:none}
    .fil2 {fill:#231F20}
    .fil1 {fill:#ED1C24}</style>
  <style type="text/css">.str0 {stroke:#D9DADA;stroke-width:0.749401}
    .str1 {stroke:#231F20;stroke-width:0.749401}
    .fil0 {fill:none}
    .fil2 {fill:#231F20}
    .fil1 {fill:#ED1C24}</style>
  <style type="text/css">.str0 {stroke:#D9DADA;stroke-width:0.749401}
    .str1 {stroke:#231F20;stroke-width:0.749401}
    .fil0 {fill:none}
    .fil2 {fill:#231F20}
    .fil1 {fill:#ED1C24}</style>
  <style type="text/css">.str0 {stroke:#D9DADA;stroke-width:0.749401}
    .str1 {stroke:#231F20;stroke-width:0.749401}
    .fil0 {fill:none}
    .fil2 {fill:#231F20}
    .fil1 {fill:#ED1C24}</style>
  <style type="text/css">.str0 {stroke:#D9DADA;stroke-width:0.749401}
    .str1 {stroke:#231F20;stroke-width:0.749401}
    .fil0 {fill:none}
    .fil2 {fill:#231F20}
    .fil1 {fill:#ED1C24}</style>
  <style type="text/css">.str0 {stroke:#D9DADA;stroke-width:0.749401}
    .str1 {stroke:#231F20;stroke-width:0.749401}
    .fil0 {fill:none}
    .fil2 {fill:#231F20}
    .fil1 {fill:#ED1C24}</style>
  <style type="text/css">.str0 {stroke:#D9DADA;stroke-width:0.749401}
    .str1 {stroke:#231F20;stroke-width:0.749401}
    .fil0 {fill:none}
    .fil2 {fill:#231F20}
    .fil1 {fill:#ED1C24}</style>
  <style type="text/css">.str0 {stroke:#D9DADA;stroke-width:0.749401}
    .str1 {stroke:#231F20;stroke-width:0.749401}
    .fil0 {fill:none}
    .fil2 {fill:#231F20}
    .fil1 {fill:#ED1C24}</style>
  <style type="text/css">.str0 {stroke:#D9DADA;stroke-width:0.749401}
    .str1 {stroke:#231F20;stroke-width:0.749401}
    .fil0 {fill:none}
    .fil2 {fill:#231F20}
    .fil1 {fill:#ED1C24}</style>
  <style type="text/css">.str0 {stroke:#D9DADA;stroke-width:0.749401}
    .str1 {stroke:#231F20;stroke-width:0.749401}
    .fil0 {fill:none}
    .fil2 {fill:#231F20}
    .fil1 {fill:#ED1C24}</style>
  <style type="text/css">.str0 {stroke:#D9DADA;stroke-width:0.749401}
    .str1 {stroke:#231F20;stroke-width:0.749401}
    .fil0 {fill:none}
    .fil2 {fill:#231F20}
    .fil1 {fill:#ED1C24}</style>
  <style type="text/css">.str0 {stroke:#D9DADA;stroke-width:0.749401}
    .str1 {stroke:#231F20;stroke-width:0.749401}
    .fil0 {fill:none}
    .fil2 {fill:#231F20}
    .fil1 {fill:#ED1C24}</style>
  <style type="text/css">.str0 {stroke:#D9DADA;stroke-width:0.749401}
    .str1 {stroke:#231F20;stroke-width:0.749401}
    .fil0 {fill:none}
    .fil2 {fill:#231F20}
    .fil1 {fill:#ED1C24}</style>
  <style type="text/css">.str0 {stroke:#D9DADA;stroke-width:0.749401}
    .str1 {stroke:#231F20;stroke-width:0.749401}
    .fil0 {fill:none}
    .fil2 {fill:#231F20}
    .fil1 {fill:#ED1C24}</style>
  <style type="text/css">.str0 {stroke:#D9DADA;stroke-width:0.749401}
    .str1 {stroke:#231F20;stroke-width:0.749401}
    .fil0 {fill:none}
    .fil2 {fill:#231F20}
    .fil1 {fill:#ED1C24}</style>
  <style type="text/css">.str0 {stroke:#D9DADA;stroke-width:0.749401}
    .str1 {stroke:#231F20;stroke-width:0.749401}
    .fil0 {fill:none}
    .fil2 {fill:#231F20}
    .fil1 {fill:#ED1C24}</style>
  <style type="text/css">.str0 {stroke:#D9DADA;stroke-width:0.749401}
    .str1 {stroke:#231F20;stroke-width:0.749401}
    .fil0 {fill:none}
    .fil2 {fill:#231F20}
    .fil1 {fill:#ED1C24}</style>
  <style type="text/css">.str0 {stroke:#D9DADA;stroke-width:0.749401}
    .str1 {stroke:#231F20;stroke-width:0.749401}
    .fil0 {fill:none}
    .fil2 {fill:#231F20}
    .fil1 {fill:#ED1C24}</style>
  <style type="text/css">.str0 {stroke:#D9DADA;stroke-width:0.749401}
    .str1 {stroke:#231F20;stroke-width:0.749401}
    .fil0 {fill:none}
    .fil2 {fill:#231F20}
    .fil1 {fill:#ED1C24}</style>
  <style type="text/css">.str0 {stroke:#D9DADA;stroke-width:0.749401}
    .str1 {stroke:#231F20;stroke-width:0.749401}
    .fil0 {fill:none}
    .fil2 {fill:#231F20}
    .fil1 {fill:#ED1C24}</style>
  <style type="text/css">.str0 {stroke:#D9DADA;stroke-width:0.749401}
    .str1 {stroke:#231F20;stroke-width:0.749401}
    .fil0 {fill:none}
    .fil2 {fill:#231F20}
    .fil1 {fill:#ED1C24}</style>
  <style type="text/css">.str0 {stroke:#D9DADA;stroke-width:0.749401}
    .str1 {stroke:#231F20;stroke-width:0.749401}
    .fil0 {fill:none}
    .fil2 {fill:#231F20}
    .fil1 {fill:#ED1C24}</style>
  <style type="text/css">.str0 {stroke:#D9DADA;stroke-width:0.749401}
    .str1 {stroke:#231F20;stroke-width:0.749401}
    .fil0 {fill:none}
    .fil2 {fill:#231F20}
    .fil1 {fill:#ED1C24}</style>
  <style type="text/css">.str0 {stroke:#D9DADA;stroke-width:0.749401}
    .str1 {stroke:#231F20;stroke-width:0.749401}
    .fil0 {fill:none}
    .fil2 {fill:#231F20}
    .fil1 {fill:#ED1C24}</style>
 </defs>
 <metadata>
  <rdf:RDF>
   <cc:Work rdf:about="">
    <dc:format>image/svg+xml</dc:format>
    <dc:type rdf:resource="http://purl.org/dc/dcmitype/StillImage"/>
    <dc:title>USAR_Hazard_HAZMAT</dc:title>
   </cc:Work>
  </rdf:RDF>
 </metadata>
 <path d="m0.5 45.578 45.014-45.078 44.986 45.01-44.984 44.99z" fill="#fff" stroke-width="1.0868"/>
 <path d="m8.457 45.566 37.055-37.105 37.032 37.049-37.03 37.032z" fill="none" fill-opacity="0" stroke="#000" stroke-linecap="round" stroke-width="3.7504"/>
 <path d="m37.176 68.509c-4.6358-4.6382-8.4287-8.5385-8.4287-8.6673 0-0.12883 0.2482-0.23993 0.55155-0.24689 0.71952-0.01647 3.1845-1.115 5.7519-2.5633 1.1268-0.6356 2.2896-1.2025 2.5843-1.2597 0.29458-0.05724 1.6755 0.65508 3.0689 1.5829 1.3933 0.92778 3.0312 1.7992 3.6398 1.9365 1.5713 0.35437 3.4687-0.15587 5.8355-1.5692 2.8546-1.7046 3.8449-1.8275 6.3312-0.78547 1.5781 0.66141 4.8767 2.4486 5.9463 3.2217 0.15534 0.11229-16.423 16.784-16.69 16.784-0.08909 0-3.9549-3.7949-8.5907-8.433zm-16.308-16.135-5.2004-5.0288 2.0487-0.0129c2.9538-0.01866 4.3214 0.4611 5.9743 2.0958 1.3195 1.305 3.3571 2.6153 4.067 2.6153 0.16276 0 1.2294-0.8459 2.3702-1.8797 2.2282-2.0193 3.243-2.6477 4.8258-2.9884 1.1749-0.25292 1.7874 0.02812 4.0147 1.8422 2.079 1.6933 4.6579 2.8157 5.8622 2.5512 0.49751-0.10927 2.4363-1.1939 4.3086-2.4103 3.2114-2.0865 3.4881-2.2039 4.8896-2.0745 1.1538 0.10654 1.811 0.41177 2.9425 1.3664 2.4979 2.1077 3.5489 2.7182 4.9512 2.8763 1.2837 0.14468 1.4831 0.0491 3.7104-1.7778 3.2132-2.6355 6.2064-3.5483 7.3806-2.2507 0.30496 0.33701 0.83584 0.65612 1.1797 0.70914 0.48922 0.07544-0.34121 1.0468-3.8185 4.4664l-4.4437 4.37-2.1239-0.2243c-1.3724-0.14494-3.1759-0.67074-5.0972-1.4861-2.7139-1.1517-3.1702-1.2519-5.23-1.1479-1.981 0.10003-2.5033 0.26739-4.2757 1.37-2.7437 1.7068-4.2541 1.7279-6.6295 0.0926-3.7387-2.5738-5.179-2.6527-9.0996-0.49866-1.3001 0.71432-3.1439 1.4689-4.0972 1.677-0.95336 0.20807-2.088 0.4679-2.5214 0.5774-0.69221 0.17491-1.4196-0.4118-5.9883-4.8297zm20.959-5.2268c-0.52004-0.2582-1.7898-1.1917-2.8219-2.0743-1.9925-1.7042-2.0442-1.715-4.9787-1.0358l-0.86672 0.2006v-8.5531l-1.9448-0.09381c-1.0696-0.05162-1.9911-0.23566-2.0476-0.40901-0.05654-0.17335 1.3814-2.088 3.1953-4.2548l3.298-3.9397 0.01032-2.2645c0.01429-3.1609 0.3366-3.8814 1.736-3.8814 0.70366 0 1.3504 0.23948 1.7642 0.65325l0.65325 0.65325 2.181-2.2291c1.1996-1.226 2.4496-2.2291 2.7779-2.2291 0.37858 0 3.1342 2.7953 7.5346 7.643 8.3229 9.1684 8.6775 9.5901 8.4237 10-0.10932 0.1769-1.1123 0.32163-2.2288 0.32163h-2.03v5.2004c0 2.8602-0.08498 5.2004-0.18888 5.2004-0.10387 0-1.0237-0.51529-2.0441-1.1451-2.4437-1.5084-3.373-1.3676-6.4303 0.97409-1.9763 1.5138-2.4652 1.7459-3.6638 1.7397-0.76069-0.0039-1.8085-0.21843-2.3286-0.47664zm12.385-9.6809 0.09319-2.1274h-3.8109v1.9961c0 1.0978 0.10092 2.097 0.22427 2.2204 0.12335 0.12335 0.9389 0.18245 1.8123 0.13133l1.5879-0.09294z" fill-rule="evenodd" stroke="#fff" stroke-width=".3782"/>
</svg>
