<?xml version="1.0" encoding="UTF-8"?>
<svg width="91" height="91" version="1.1" viewBox="0 0 91 91" xmlns="http://www.w3.org/2000/svg" xmlns:cc="http://creativecommons.org/ns#" xmlns:dc="http://purl.org/dc/elements/1.1/" xmlns:rdf="http://www.w3.org/1999/02/22-rdf-syntax-ns#">
 <title>USAR_Hazard_HAZMAT</title>
 <defs>
  <style type="text/css">.str0 {stroke:#D9DADA;stroke-width:0.749401}
    .str1 {stroke:#231F20;stroke-width:0.749401}
    .fil0 {fill:none}
    .fil2 {fill:#231F20}
    .fil1 {fill:#ED1C24}</style>
  <style type="text/css">.str0 {stroke:#D9DADA;stroke-width:0.749401}
    .str1 {stroke:#231F20;stroke-width:0.749401}
    .fil0 {fill:none}
    .fil2 {fill:#231F20}
    .fil1 {fill:#ED1C24}</style>
  <style type="text/css">.str0 {stroke:#D9DADA;stroke-width:0.749401}
    .str1 {stroke:#231F20;stroke-width:0.749401}
    .fil0 {fill:none}
    .fil2 {fill:#231F20}
    .fil1 {fill:#ED1C24}</style>
  <style type="text/css">.str0 {stroke:#D9DADA;stroke-width:0.749401}
    .str1 {stroke:#231F20;stroke-width:0.749401}
    .fil0 {fill:none}
    .fil2 {fill:#231F20}
    .fil1 {fill:#ED1C24}</style>
  <style type="text/css">.str0 {stroke:#D9DADA;stroke-width:0.749401}
    .str1 {stroke:#231F20;stroke-width:0.749401}
    .fil0 {fill:none}
    .fil2 {fill:#231F20}
    .fil1 {fill:#ED1C24}</style>
  <style type="text/css">.str0 {stroke:#D9DADA;stroke-width:0.749401}
    .str1 {stroke:#231F20;stroke-width:0.749401}
    .fil0 {fill:none}
    .fil2 {fill:#231F20}
    .fil1 {fill:#ED1C24}</style>
  <style type="text/css">.str0 {stroke:#D9DADA;stroke-width:0.749401}
    .str1 {stroke:#231F20;stroke-width:0.749401}
    .fil0 {fill:none}
    .fil2 {fill:#231F20}
    .fil1 {fill:#ED1C24}</style>
  <style type="text/css">.str0 {stroke:#D9DADA;stroke-width:0.749401}
    .str1 {stroke:#231F20;stroke-width:0.749401}
    .fil0 {fill:none}
    .fil2 {fill:#231F20}
    .fil1 {fill:#ED1C24}</style>
  <style type="text/css">.str0 {stroke:#D9DADA;stroke-width:0.749401}
    .str1 {stroke:#231F20;stroke-width:0.749401}
    .fil0 {fill:none}
    .fil2 {fill:#231F20}
    .fil1 {fill:#ED1C24}</style>
  <style type="text/css">.str0 {stroke:#D9DADA;stroke-width:0.749401}
    .str1 {stroke:#231F20;stroke-width:0.749401}
    .fil0 {fill:none}
    .fil2 {fill:#231F20}
    .fil1 {fill:#ED1C24}</style>
  <style type="text/css">.str0 {stroke:#D9DADA;stroke-width:0.749401}
    .str1 {stroke:#231F20;stroke-width:0.749401}
    .fil0 {fill:none}
    .fil2 {fill:#231F20}
    .fil1 {fill:#ED1C24}</style>
  <style type="text/css">.str0 {stroke:#D9DADA;stroke-width:0.749401}
    .str1 {stroke:#231F20;stroke-width:0.749401}
    .fil0 {fill:none}
    .fil2 {fill:#231F20}
    .fil1 {fill:#ED1C24}</style>
  <style type="text/css">.str0 {stroke:#D9DADA;stroke-width:0.749401}
    .str1 {stroke:#231F20;stroke-width:0.749401}
    .fil0 {fill:none}
    .fil2 {fill:#231F20}
    .fil1 {fill:#ED1C24}</style>
  <style type="text/css">.str0 {stroke:#D9DADA;stroke-width:0.749401}
    .str1 {stroke:#231F20;stroke-width:0.749401}
    .fil0 {fill:none}
    .fil2 {fill:#231F20}
    .fil1 {fill:#ED1C24}</style>
  <style type="text/css">.str0 {stroke:#D9DADA;stroke-width:0.749401}
    .str1 {stroke:#231F20;stroke-width:0.749401}
    .fil0 {fill:none}
    .fil2 {fill:#231F20}
    .fil1 {fill:#ED1C24}</style>
  <style type="text/css">.str0 {stroke:#D9DADA;stroke-width:0.749401}
    .str1 {stroke:#231F20;stroke-width:0.749401}
    .fil0 {fill:none}
    .fil2 {fill:#231F20}
    .fil1 {fill:#ED1C24}</style>
  <style type="text/css">.str0 {stroke:#D9DADA;stroke-width:0.749401}
    .str1 {stroke:#231F20;stroke-width:0.749401}
    .fil0 {fill:none}
    .fil2 {fill:#231F20}
    .fil1 {fill:#ED1C24}</style>
  <style type="text/css">.str0 {stroke:#D9DADA;stroke-width:0.749401}
    .str1 {stroke:#231F20;stroke-width:0.749401}
    .fil0 {fill:none}
    .fil2 {fill:#231F20}
    .fil1 {fill:#ED1C24}</style>
  <style type="text/css">.str0 {stroke:#D9DADA;stroke-width:0.749401}
    .str1 {stroke:#231F20;stroke-width:0.749401}
    .fil0 {fill:none}
    .fil2 {fill:#231F20}
    .fil1 {fill:#ED1C24}</style>
  <style type="text/css">.str0 {stroke:#D9DADA;stroke-width:0.749401}
    .str1 {stroke:#231F20;stroke-width:0.749401}
    .fil0 {fill:none}
    .fil2 {fill:#231F20}
    .fil1 {fill:#ED1C24}</style>
  <style type="text/css">.str0 {stroke:#D9DADA;stroke-width:0.749401}
    .str1 {stroke:#231F20;stroke-width:0.749401}
    .fil0 {fill:none}
    .fil2 {fill:#231F20}
    .fil1 {fill:#ED1C24}</style>
  <style type="text/css">.str0 {stroke:#D9DADA;stroke-width:0.749401}
    .str1 {stroke:#231F20;stroke-width:0.749401}
    .fil0 {fill:none}
    .fil2 {fill:#231F20}
    .fil1 {fill:#ED1C24}</style>
  <style type="text/css">.str0 {stroke:#D9DADA;stroke-width:0.749401}
    .str1 {stroke:#231F20;stroke-width:0.749401}
    .fil0 {fill:none}
    .fil2 {fill:#231F20}
    .fil1 {fill:#ED1C24}</style>
  <style type="text/css">.str0 {stroke:#D9DADA;stroke-width:0.749401}
    .str1 {stroke:#231F20;stroke-width:0.749401}
    .fil0 {fill:none}
    .fil2 {fill:#231F20}
    .fil1 {fill:#ED1C24}</style>
  <style type="text/css">.str0 {stroke:#D9DADA;stroke-width:0.749401}
    .str1 {stroke:#231F20;stroke-width:0.749401}
    .fil0 {fill:none}
    .fil2 {fill:#231F20}
    .fil1 {fill:#ED1C24}</style>
  <style type="text/css">.str0 {stroke:#D9DADA;stroke-width:0.749401}
    .str1 {stroke:#231F20;stroke-width:0.749401}
    .fil0 {fill:none}
    .fil2 {fill:#231F20}
    .fil1 {fill:#ED1C24}</style>
  <style type="text/css">.str0 {stroke:#D9DADA;stroke-width:0.749401}
    .str1 {stroke:#231F20;stroke-width:0.749401}
    .fil0 {fill:none}
    .fil2 {fill:#231F20}
    .fil1 {fill:#ED1C24}</style>
  <style type="text/css">.str0 {stroke:#D9DADA;stroke-width:0.749401}
    .str1 {stroke:#231F20;stroke-width:0.749401}
    .fil0 {fill:none}
    .fil2 {fill:#231F20}
    .fil1 {fill:#ED1C24}</style>
  <style type="text/css">.str0 {stroke:#D9DADA;stroke-width:0.749401}
    .str1 {stroke:#231F20;stroke-width:0.749401}
    .fil0 {fill:none}
    .fil2 {fill:#231F20}
    .fil1 {fill:#ED1C24}</style>
  <style type="text/css">.str0 {stroke:#D9DADA;stroke-width:0.749401}
    .str1 {stroke:#231F20;stroke-width:0.749401}
    .fil0 {fill:none}
    .fil2 {fill:#231F20}
    .fil1 {fill:#ED1C24}</style>
  <style type="text/css">.str0 {stroke:#D9DADA;stroke-width:0.749401}
    .str1 {stroke:#231F20;stroke-width:0.749401}
    .fil0 {fill:none}
    .fil2 {fill:#231F20}
    .fil1 {fill:#ED1C24}</style>
  <style type="text/css">.str0 {stroke:#D9DADA;stroke-width:0.749401}
    .str1 {stroke:#231F20;stroke-width:0.749401}
    .fil0 {fill:none}
    .fil2 {fill:#231F20}
    .fil1 {fill:#ED1C24}</style>
 </defs>
 <metadata>
  <rdf:RDF>
   <cc:Work rdf:about="">
    <dc:format>image/svg+xml</dc:format>
    <dc:type rdf:resource="http://purl.org/dc/dcmitype/StillImage"/>
    <dc:title>USAR_Hazard_HAZMAT</dc:title>
   </cc:Work>
  </rdf:RDF>
 </metadata>
 <path d="m0.5 45.578 45.014-45.078 44.986 45.01-44.984 44.99z" fill="#fff" stroke-width="1.0868"/>
 <path d="m8.457 45.566 37.055-37.105 37.032 37.049-37.03 37.032z" fill="none" fill-opacity="0" stroke="#000" stroke-linecap="round" stroke-width="3.7504"/>
 <path d="m58.548 29.54c-0.2312-0.34748-0.67904-0.61046-1.1752-0.61462-0.15499 0.21836-0.25904 0.46052-0.29124 0.71221-0.03731 0.21419 7.44e-4 0.44088-0.10911 0.64377-0.14044 0.29333-0.28172 0.58605-0.41782 0.88118-0.62199 0.05658-1.0779 0.44625-1.4496 0.82228-0.66515 0.70149-1.1627 1.4963-1.6244 2.2955-0.57296 0.9984-1.0661 2.0254-1.541 3.0571-0.12794 0.23443-0.06304 0.49622-0.07907 0.74434-0.02499 0.43256 0.09436 0.85738 0.16842 1.2834-2.9021 1.5464-12.285 2.1962-15.119 3.3023 3.99 0.33253 5.6535 0.0849 0 0-0.53124-0.07495-0.99371-0.32488-1.4627-0.52835-1.4883-0.71043-2.9006-1.5208-4.3091-2.33-0.18958-0.12016-0.41269-0.21064-0.57149-0.35998-1.0471-1.2667-2.0868-2.5394-3.2277-3.7526-0.4654-0.57476-0.85014-0.78086-1.4108-0.95236-0.99305 0.04668-0.89855 0.95495-0.98346 1.5481-0.0381 0.35698-0.03728 0.71696-0.02424 1.0751-0.0056 0.90975 0.55539 1.7457 1.2132 2.4525 0.92054 0.97519 2.0701 1.7867 3.2583 2.5383 0.93515 0.57714 1.8951 1.1311 2.8946 1.6309 0.60808 0.09931 1.2213 0.18564 1.8337 0.26298 0.28465-0.06957 0.55394-0.17312 0.83271-0.25346-0.94539 0.71636-1.6764 1.6178-2.1008 2.6108-0.41853 0.94068-0.55464 1.9456-0.58172 2.9405-0.39952 1.0442-1.0581 2.036-1.9822 2.8363-0.58104 0.50753-1.2754 0.92283-2.0225 1.2542 0.05407 0.27488 0.18664 0.5468 0.14696 0.82942-0.1874 1.4988-0.37248 2.9975-0.55466 4.4963-0.03204 0.35283-0.12515 0.70684-0.07609 1.0615 0.09161 0.49087 0.62488 0.8425 1.1678 1.0049 0.60808 0.01458 1.2161-5.97e-4 1.8242 0.0059 0.17792-0.1362 0.3483-0.27726 0.52759-0.41113-0.02552-0.07496-0.04848-0.15292-0.11488-0.21122-0.41417-0.42602-0.81294-0.86631-1.1188-1.3506-0.17942-0.28798-0.32052-0.60332-0.29566-0.93116 0.02653-0.5819-0.0828-1.1846 0.16543-1.7445 0.29271-0.70684 0.95416-1.2626 1.6779-1.6963-0.06884 1.3869-0.23338 2.7709-0.32563 4.1573-0.01955 0.12614 0.11191 0.21419 0.20128 0.30106 0.3827 0.32546 0.93954 0.46171 1.473 0.52478 0.59854 0.06605 1.2374 0.06548 1.7949-0.14276 0.1714-0.05235 0.20637-0.20347 0.21586-0.33319-0.42806-0.37485-0.83784-0.76576-1.1949-1.187-0.20856-0.25941-0.42072-0.53192-0.48365-0.8425-0.02185-0.27429-0.0056-0.54977-0.0094-0.82406 0.0074-0.30523-0.03433-0.61879 0.09004-0.91271 0.22244-0.54799 0.71784-0.98472 1.2366-1.3625 1.2893-0.90975 2.8275-1.5392 4.3457-2.1521 0.31684-0.31772 0.57589-0.67174 0.84222-1.018 0.22025-0.30166 0.44414-0.61105 0.52683-0.95972 0.35272 0.04113 0.70247 0.15531 1.061 0.11958 0.28684-0.12556 0.33441-0.42244 0.43391-0.64972 0.83124-0.08386 1.661-0.18622 2.4938-0.25584 2.2405 0.49205 4.5667 0.64437 6.8731 0.78658-0.04962 0.23085-0.1382 0.45755-0.15499 0.69257 0.1397 0.79311 0.29856 1.585 0.44636 2.3776 0.0733 0.29451 0.01959 0.59499 0.01493 0.89308-0.05129 1.0032-0.08281 2.008-0.14119 3.0112-0.13242 0.36294-0.32926 0.71041-0.49317 1.0656 0.38706 0.25287 0.53416 0.65924 0.59927 1.0442 0.11041 0.59022 0.03432 1.1894 0.0776 1.7832 0.04682 0.42482 0.43099 0.77586 0.88831 0.95852 1.096 0.517 2.1146 0.35968 2.9629-0.18199-0.11713-0.17789-0.22827-0.3576-0.34392-0.53609 0.13895-0.02494 0.29344-0.02494 0.40829-0.09873 0.10612-0.08036 0.08206-0.20111 0.09363-0.30463-0.88538-0.64199-1.6874-1.5047-1.6749-2.5126 0.16301-1.3352 0.38488-2.6662 0.68927-3.9846 0.21661-0.88534 0.461-1.7712 0.86563-2.6138 0.24069-0.48015 0.52394-0.98055 1.0413-1.3036 0.20783-0.14755 0.51221-0.11185 0.72515-0.24394 1.0764-0.63842 2.0971-1.3494 2.9577-2.1794 1.1071-1.0609 1.9376-2.3656 2.0598-3.7717 0.08411-0.64141-0.09213-1.2774-0.24-1.9033-0.44562-1.7314-1.0164-3.4391-1.5783-5.1473 0.52245-0.02799 1.02 0.19694 1.5417 0.10776 0.8854-0.09814 1.7979-0.13329 2.6445-0.3796 0.6688-0.38911 1.0471-1.0085 1.4291-1.5827 0.09288-0.11608 0.1244-0.29034-0.02182-0.38733-0.33807-0.24871-0.77636-0.37961-1.1869-0.52953-0.73026-0.2499-1.4839-0.4522-2.2333-0.66164-0.80999-1.19-2.1564-2.095-3.6761-2.6393-0.0075-0.46827-0.06378-0.95497-0.34172-1.3738z" fill-rule="evenodd" stroke="#040000" stroke-width=".93014"/>
</svg>
