<?xml version="1.0" encoding="UTF-8" standalone="no"?>
<svg
   width="90.819008"
   height="91.180557"
   version="1.1"
   viewBox="0 0 24.028944 24.125067"
   id="svg1345"
   sodipodi:docname="USR_EventPoint_OtherIncidentSupport_Wifi.svg"
   inkscape:version="1.1.2 (b8e25be833, 2022-02-05)"
   xmlns:inkscape="http://www.inkscape.org/namespaces/inkscape"
   xmlns:sodipodi="http://sodipodi.sourceforge.net/DTD/sodipodi-0.dtd"
   xmlns="http://www.w3.org/2000/svg"
   xmlns:svg="http://www.w3.org/2000/svg"
   xmlns:rdf="http://www.w3.org/1999/02/22-rdf-syntax-ns#"
   xmlns:cc="http://creativecommons.org/ns#"
   xmlns:dc="http://purl.org/dc/elements/1.1/">
  <defs
     id="defs1349" />
  <sodipodi:namedview
     id="namedview1347"
     pagecolor="#ffffff"
     bordercolor="#666666"
     borderopacity="1.0"
     inkscape:pageshadow="2"
     inkscape:pageopacity="0.0"
     inkscape:pagecheckerboard="0"
     showgrid="false"
     fit-margin-top="0.5905"
     fit-margin-left="0.5"
     fit-margin-right="0.5"
     fit-margin-bottom="0.5905"
     inkscape:zoom="8.3486027"
     inkscape:cx="45.396818"
     inkscape:cy="45.636379"
     inkscape:window-width="1920"
     inkscape:window-height="974"
     inkscape:window-x="-11"
     inkscape:window-y="-11"
     inkscape:window-maximized="1"
     inkscape:current-layer="svg1345" />
  <metadata
     id="metadata1331">
    <rdf:RDF>
      <cc:Work
         rdf:about="">
        <dc:format>image/svg+xml</dc:format>
        <dc:type
           rdf:resource="http://purl.org/dc/dcmitype/StillImage" />
      </cc:Work>
    </rdf:RDF>
  </metadata>
  <rect
     transform="matrix(0.70639643,-0.70781642,0.70639643,0.70781642,0,0)"
     x="-8.6154842"
     y="8.4264116"
     width="17.197187"
     height="17.197187"
     rx="0.64332592"
     ry="0.64332592"
     fill="#000080"
     style="stroke-width:0.98653;paint-order:normal"
     id="rect1333" />
  <g
     fill="#ffffff"
     id="g1343"
     transform="matrix(0.98652482,0,0,0.98652482,-0.02205944,0.02540936)">
    <path
       d="M 21.311,10.829 C 18.8757,8.4389 15.6299,7.1249 12.1806,7.1249 c -3.4494,0 -6.6952,1.314 -9.1304,3.7041 -0.3627,0.35514 -0.3553,0.92692 0.014804,1.275 0.18135,0.17047 0.7069,0.58243 1.3287,-0.01427 2.1022,-2.0172 4.8483,-3.1608 7.787,-3.1608 2.9423,0 5.707,1.1222 7.7907,3.1608 0.3627,0.35514 0.95857,0.36224 1.3287,0.01427 0.3701,-0.34804 0.3775,-0.91982 0.01107,-1.275 z"
       id="path1335" />
    <path
       d="m 18.868,13.329 c -3.6899,-3.5408 -9.6893,-3.5408 -13.379,0 -0.3664,0.35159 -0.3664,0.92337 0,1.275 0.3664,0.35159 0.96227,0.35159 1.3287,0 2.9571,-2.834 7.6278,-2.6955 10.718,0 0.74021,0.6428 1.1473,0.17757 1.3287,0 0.3701,-0.35159 0.3701,-0.92337 0.0037,-1.275 z"
       id="path1337" />
    <path
       d="m 16.17,15.918 c -2.1984,-2.1095 -5.7773,-2.1095 -7.9757,0 -0.3664,0.35159 -0.3664,0.92337 0,1.275 0.3664,0.35159 0.96227,0.35159 1.3287,0 1.4656,-1.4064 3.5678,-1.0654 5.3184,0 0.89935,0.54692 1.1473,0.17757 1.3287,0 0.3664,-0.35159 0.3664,-0.91981 0,-1.275 z"
       id="path1339" />
    <ellipse
       cx="12.181"
       cy="19.746"
       rx="1.8801"
       ry="1.8041"
       id="ellipse1341" />
  </g>
</svg>
