<?xml version="1.0" encoding="UTF-8" standalone="no"?>
<svg
   width="91.002197"
   height="91.17942"
   version="1.1"
   viewBox="0 0 24.077581 24.124472"
   id="svg1554"
   sodipodi:docname="USR_EventPoint_OtherIncidentSupport_Staging.svg"
   inkscape:version="1.1.2 (b8e25be833, 2022-02-05)"
   xmlns:inkscape="http://www.inkscape.org/namespaces/inkscape"
   xmlns:sodipodi="http://sodipodi.sourceforge.net/DTD/sodipodi-0.dtd"
   xmlns="http://www.w3.org/2000/svg"
   xmlns:svg="http://www.w3.org/2000/svg"
   xmlns:rdf="http://www.w3.org/1999/02/22-rdf-syntax-ns#"
   xmlns:cc="http://creativecommons.org/ns#"
   xmlns:dc="http://purl.org/dc/elements/1.1/">
  <defs
     id="defs1558" />
  <sodipodi:namedview
     id="namedview1556"
     pagecolor="#ffffff"
     bordercolor="#666666"
     borderopacity="1.0"
     inkscape:pageshadow="2"
     inkscape:pageopacity="0.0"
     inkscape:pagecheckerboard="0"
     showgrid="false"
     fit-margin-top="0.5905"
     fit-margin-left="0.5"
     fit-margin-right="0.5"
     fit-margin-bottom="0.5905"
     inkscape:zoom="8.4615385"
     inkscape:cx="45.5"
     inkscape:cy="45.618182"
     inkscape:window-width="1920"
     inkscape:window-height="974"
     inkscape:window-x="-11"
     inkscape:window-y="-11"
     inkscape:window-maximized="1"
     inkscape:current-layer="svg1554" />
  <metadata
     id="metadata1548">
    <rdf:RDF>
      <cc:Work
         rdf:about="">
        <dc:format>image/svg+xml</dc:format>
        <dc:type
           rdf:resource="http://purl.org/dc/dcmitype/StillImage" />
      </cc:Work>
    </rdf:RDF>
  </metadata>
  <rect
     x="0.13229121"
     y="0.15623592"
     width="23.813"
     height="23.812"
     rx="0.79374999"
     ry="0.79374999"
     fill="#0000ff"
     style="paint-order:normal"
     id="rect1550" />
  <path
     d="m 19.200001,16.021946 q 0,1.0754 -0.50679,2.126 -0.49443,1.0507 -1.3968,1.7799 -0.98886,0.79108 -2.3114,1.2361 -1.3102,0.44499 -3.1643,0.44499 -1.9900998,0 -3.5845998,-0.37082 -1.5822,-0.37082 -3.2261,-1.1001 v -3.0654 h 0.17305 q 1.3968,1.1619 3.2261,1.7923 1.8293998,0.63039 3.4362998,0.63039 2.2744,0 3.5352,-0.85289 1.2732,-0.85289 1.2732,-2.2744 0,-1.2237 -0.60567,-1.8047 -0.59331,-0.58095 -1.817,-0.90233 -0.92705,-0.24721 -2.0148,-0.4079 -1.0754,-0.16069 -2.2866998,-0.4079 -2.4474,-0.51915 -3.634,-1.7676 -1.1743,-1.2608001 -1.1743,-3.2756001 0,-2.3114 1.953,-3.7824 1.953,-1.4833 4.9565998,-1.4833 1.9406,0 3.5599,0.37082 1.6192,0.37082 2.8677,0.91469 v 2.8924 h -0.17305 q -1.0507,-0.88997 -2.7688,-1.4709 -1.7058,-0.59331 -3.4981,-0.59331 -1.9653,0 -3.1642998,0.8158 -1.1866,0.8158 -1.1866,2.1013 0,1.1495 0.59331,1.8047 0.59331,0.6551201 2.0889998,1.0012001 0.79108,0.17305 2.2496,0.42026 1.4586,0.24721 2.4721,0.50679 2.0519,0.54387 3.0902,1.644 1.0383,1.1001 1.0383,3.0778 z"
     fill="#ffffff"
     stroke-width="1.8"
     id="path1552" />
</svg>
