<?xml version="1.0" encoding="UTF-8" standalone="no"?>
<svg
   width="91"
   height="91"
   version="1.1"
   viewBox="0 0 24.077 24.077"
   id="svg2932"
   sodipodi:docname="USR_EventPoint_OtherIncidentSupport_SafetyZone.svg"
   inkscape:export-filename="C:\Users\15402\OneDrive\Desktop\To Upload\USR_EventPoint_OtherIncidentSupport_SafetyZone.png"
   inkscape:export-xdpi="270.06595"
   inkscape:export-ydpi="270.06595"
   inkscape:version="1.1.2 (b8e25be833, 2022-02-05)"
   xmlns:inkscape="http://www.inkscape.org/namespaces/inkscape"
   xmlns:sodipodi="http://sodipodi.sourceforge.net/DTD/sodipodi-0.dtd"
   xmlns="http://www.w3.org/2000/svg"
   xmlns:svg="http://www.w3.org/2000/svg"
   xmlns:rdf="http://www.w3.org/1999/02/22-rdf-syntax-ns#"
   xmlns:cc="http://creativecommons.org/ns#"
   xmlns:dc="http://purl.org/dc/elements/1.1/">
  <defs
     id="defs2936" />
  <sodipodi:namedview
     id="namedview2934"
     pagecolor="#ffffff"
     bordercolor="#666666"
     borderopacity="1.0"
     inkscape:pageshadow="2"
     inkscape:pageopacity="0.0"
     inkscape:pagecheckerboard="0"
     showgrid="false"
     inkscape:zoom="8.4615385"
     inkscape:cx="45.5"
     inkscape:cy="45.5"
     inkscape:window-width="1920"
     inkscape:window-height="974"
     inkscape:window-x="-11"
     inkscape:window-y="-11"
     inkscape:window-maximized="1"
     inkscape:current-layer="svg2932" />
  <metadata
     id="metadata2926">
    <rdf:RDF>
      <cc:Work
         rdf:about="">
        <dc:format>image/svg+xml</dc:format>
        <dc:type
           rdf:resource="http://purl.org/dc/dcmitype/StillImage" />
      </cc:Work>
    </rdf:RDF>
  </metadata>
  <path
     d="m0.5902 23.487 11.448-22.897 11.448 22.897z"
     fill="#ff0"
     stroke="#000"
     stroke-linecap="round"
     stroke-linejoin="round"
     stroke-width=".91587"
     style="paint-order:normal"
     id="path2928" />
  <path
     d="m16.963 18.584q0 0.70937-0.3343 1.4024-0.32615 0.69306-0.92137 1.1741-0.6523 0.52184-1.5247 0.81537-0.86429 0.29353-2.0873 0.29353-1.3127 0-2.3646-0.24461-1.0437-0.24461-2.1281-0.72568v-2.0221h0.11415q0.92137 0.76645 2.1281 1.1823 1.2067 0.41584 2.2667 0.41584 1.5003 0 2.332-0.5626 0.83983-0.5626 0.83983-1.5003 0-0.80722-0.39953-1.1904-0.39138-0.38322-1.1986-0.59522-0.61153-0.16307-1.3291-0.26907-0.70937-0.106-1.5084-0.26907-1.6144-0.34246-2.3972-1.166-0.7746-0.83168-0.7746-2.1607 0-1.5247 1.2883-2.495 1.2883-0.97844 3.2696-0.97844 1.2801 0 2.3483 0.24461 1.0681 0.24461 1.8917 0.60337v1.908h-0.11414q-0.69307-0.58707-1.8264-0.97029-1.1252-0.39138-2.3075-0.39138-1.2964 0-2.0873 0.53814-0.78275 0.53814-0.78275 1.3861 0 0.75829 0.39138 1.1904 0.39138 0.43215 1.378 0.66045 0.52184 0.11415 1.484 0.27723 0.96214 0.16307 1.6307 0.3343 1.3535 0.35876 2.0384 1.0844 0.68491 0.72568 0.68491 2.0303z"
     stroke-width="1.7308"
     id="path2930" />
</svg>
